<?xml version="1.0" standalone="no"?>
<!DOCTYPE svg PUBLIC "-//W3C//DTD SVG 20010904//EN"
 "http://www.w3.org/TR/2001/REC-SVG-20010904/DTD/svg10.dtd">
<svg version="1.0" xmlns="http://www.w3.org/2000/svg"
 width="273.000000pt" height="273.000000pt" viewBox="0 0 273.000000 273.000000"
 preserveAspectRatio="xMidYMid meet">
<metadata>
Created by potrace 1.11, written by Peter Selinger 2001-2013
</metadata>
<g transform="translate(0.000000,273.000000) scale(0.100000,-0.100000)"
fill="#000000" stroke="none">
<path d="M1751 2704 c-83 -22 -158 -67 -251 -150 -47 -42 -97 -82 -112 -90
-30 -15 -98 -19 -98 -5 0 4 -33 43 -73 84 -117 122 -233 164 -383 138 -189
-33 -355 -174 -413 -352 -55 -165 -50 -345 14 -567 57 -200 93 -275 219 -458
62 -91 61 -107 -29 -329 -43 -104 -84 -211 -92 -238 -23 -77 -43 -204 -49
-312 -12 -189 47 -323 170 -388 57 -30 163 -30 229 0 75 35 264 165 345 237
40 36 79 66 87 66 8 0 44 -40 80 -89 78 -107 142 -167 217 -203 148 -73 263
-63 393 35 107 80 181 192 244 371 27 75 30 94 21 121 -6 17 -23 110 -40 206
-35 213 -83 389 -144 531 -68 159 -68 158 -3 355 83 248 103 343 121 548 2 28
10 69 17 92 12 39 11 46 -26 139 -21 53 -52 118 -69 143 -37 55 -103 106 -154
121 -52 14 -157 11 -221 -6z m239 -116 c38 -26 75 -93 85 -157 6 -39 5 -43
-10 -38 -9 4 -131 7 -271 7 -295 0 -297 1 -223 77 83 85 193 132 315 132 58 1
77 -3 104 -21z m-945 -42 c76 -35 168 -149 152 -189 -6 -17 -80 -37 -135 -37
-22 0 -133 -16 -248 -35 -114 -19 -225 -35 -246 -35 -34 0 -38 3 -43 33 -9 46
14 96 72 158 79 84 186 128 318 128 63 1 90 -4 130 -23z m952 -257 c80 -14
112 -40 120 -94 16 -125 -117 -575 -173 -583 -31 -4 -294 307 -386 458 -65
106 -86 190 -50 206 51 23 382 32 489 13z m-772 -69 c4 -6 -6 -32 -21 -58
-100 -174 -136 -246 -233 -460 -100 -221 -160 -332 -196 -362 -11 -9 -21 -2
-49 37 -103 140 -196 354 -222 508 -17 102 -13 215 10 234 29 24 228 70 456
104 58 9 249 6 255 -3z m205 -120 c68 -128 144 -233 281 -390 51 -59 79 -99
79 -114 0 -3 -90 -6 -200 -6 -158 0 -205 -3 -223 -14 -12 -8 -78 -33 -147 -56
-121 -40 -175 -66 -232 -112 -15 -12 -31 -18 -35 -14 -25 24 206 521 327 704
79 119 88 119 150 2z m370 -640 c45 -23 48 -33 22 -71 -24 -36 -129 -131 -135
-122 -2 4 -7 37 -11 73 -4 36 -9 79 -12 97 -5 25 -2 32 13 36 41 11 86 6 123
-13z m-259 -59 c65 -65 23 -155 -86 -186 -47 -14 -57 -14 -88 -1 -71 29 -84
93 -34 167 25 37 49 47 125 48 47 1 57 -3 83 -28z m-360 -13 c1 -2 4 -46 8
-98 4 -52 11 -102 15 -111 18 -41 -200 -54 -243 -15 -12 11 -21 28 -21 39 0
29 35 81 77 113 43 33 159 83 164 72z m839 -163 c92 -195 152 -485 124 -591
-11 -41 -236 -94 -434 -101 -148 -6 -197 4 -186 35 4 9 102 187 219 395 239
428 211 401 277 262z m-282 -83 c-4 -25 -42 -97 -110 -208 -58 -93 -126 -209
-153 -259 -79 -148 -99 -168 -150 -149 -9 4 -71 90 -139 193 -68 102 -142 207
-165 233 -23 26 -40 52 -37 57 6 9 109 23 320 42 133 12 203 31 333 89 48 22
92 40 97 40 5 0 6 -17 4 -38z m-882 -145 c44 -46 108 -124 144 -175 81 -114
180 -289 180 -319 0 -33 -35 -38 -180 -25 -69 7 -187 12 -262 12 l-138 0 0 73
c0 41 9 107 19 148 21 81 139 369 151 369 4 0 43 -37 86 -83z m1277 -534 c22
-25 3 -73 -70 -180 -62 -92 -101 -128 -160 -149 -86 -30 -223 -7 -299 51 -34
26 -154 176 -154 193 0 20 67 34 321 67 315 40 341 41 362 18z m-1004 -91 l45
-7 -70 -64 c-131 -120 -231 -174 -325 -175 -79 -1 -130 35 -178 126 -43 80
-39 94 35 121 43 16 73 17 249 12 110 -3 220 -9 244 -13z"/>
<path d="M1420 1324 c0 -8 5 -12 10 -9 6 4 8 11 5 16 -9 14 -15 11 -15 -7z"/>
</g>
</svg>
