<?xml version="1.0" standalone="no"?>
<!DOCTYPE svg PUBLIC "-//W3C//DTD SVG 1.1//EN" "http://www.w3.org/Graphics/SVG/1.1/DTD/svg11.dtd" >
<svg xmlns="http://www.w3.org/2000/svg" xmlns:xlink="http://www.w3.org/1999/xlink" version="1.1">
<metadata></metadata>
<defs>
<font id="julesbubbleuclcregular" horiz-adv-x="1495" >
<font-face units-per-em="2048" ascent="1638" descent="-410" />
<missing-glyph horiz-adv-x="698" />
<glyph horiz-adv-x="0" />
<glyph horiz-adv-x="682" />
<glyph unicode="&#xa;" horiz-adv-x="0" />
<glyph unicode="&#xd;" horiz-adv-x="0" />
<glyph unicode=" "  horiz-adv-x="698" />
<glyph unicode="&#x09;" horiz-adv-x="698" />
<glyph unicode="&#xa0;" horiz-adv-x="698" />
<glyph unicode="A" d="M102 148v14q0 107 14 193q16 92 63 175q103 183 240 384q12 18 31 38.5t32 32.5t40 36.5t36 32.5q34 32 50 62q11 20 11 44q0 11 -2 22q-3 17 -3 34q0 122 183 190q76 28 148 28q105 0 197 -61q145 -95 179 -203q14 -44 26 -90.5t26.5 -108.5t19.5 -82 q-10 -58 -28.5 -175t-33.5 -203.5t-30 -164.5q-29 -150 -182 -303q-43 -43 -100 -43h-7q-62 2 -107 50q-134 138 -134 299q0 16 1 33q6 23 3 52t-30 47q-19 13 -54.5 -5t-68.5 -58q-18 -22 -49.5 -62t-58 -72.5t-51.5 -60.5q-50 -54 -124 -104q-36 -23 -102 -38 q-18 -4 -35 -4q-31 0 -58 13q-42 20 -42 58zM210 223q0 -17 35 -39q5 -3 20 0t21 8q56 47 136 121q49 45 146 137t146 138q21 20 47.5 27t54.5 -3q48 -21 66 -67q6 -15 8 -32.5t3 -39t1 -33.5q2 -19 4.5 -56t5.5 -66t9 -55q10 -47 33.5 -79.5t75.5 -47.5q9 -3 18 -3 q25 0 51 21q35 28 64 87q6 12 15.5 35.5t13.5 32.5q41 93 59.5 273.5t43.5 260.5q-8 25 -26.5 92t-34 116.5t-33.5 95.5q-49 125 -227 163q-19 4 -39 4q-27 0 -53 -8q-46 -14 -71 -43q-262 -318 -320 -390q-265 -327 -273 -650zM830 914q1 66 69 127q13 11 50 11h12 q23 -2 34 -21q13 -23 13 -48q0 -23 -10 -47q-22 -51 -73 -74q-5 -2 -23 -5q-24 -2 -48.5 17.5t-23.5 39.5z" />
<glyph unicode="&#xc4;" d="M102 148v14q0 107 14 193q16 92 63 175q103 183 240 384q12 18 31 38.5t32 32.5t40 36.5t36 32.5q34 32 50 62q11 20 11 44q0 11 -2 22q-3 17 -3 34q0 122 183 190q76 28 148 28q105 0 197 -61q145 -95 179 -203q14 -44 26 -90.5t26.5 -108.5t19.5 -82 q-10 -58 -28.5 -175t-33.5 -203.5t-30 -164.5q-29 -150 -182 -303q-43 -43 -100 -43h-7q-62 2 -107 50q-134 138 -134 299q0 16 1 33q6 23 3 52t-30 47q-19 13 -54.5 -5t-68.5 -58q-18 -22 -49.5 -62t-58 -72.5t-51.5 -60.5q-50 -54 -124 -104q-36 -23 -102 -38 q-18 -4 -35 -4q-31 0 -58 13q-42 20 -42 58zM210 223q0 -17 35 -39q5 -3 20 0t21 8q56 47 136 121q49 45 146 137t146 138q21 20 47.5 27t54.5 -3q48 -21 66 -67q6 -15 8 -32.5t3 -39t1 -33.5q2 -19 4.5 -56t5.5 -66t9 -55q10 -47 33.5 -79.5t75.5 -47.5q9 -3 18 -3 q25 0 51 21q35 28 64 87q6 12 15.5 35.5t13.5 32.5q41 93 59.5 273.5t43.5 260.5q-8 25 -26.5 92t-34 116.5t-33.5 95.5q-49 125 -227 163q-19 4 -39 4q-27 0 -53 -8q-46 -14 -71 -43q-262 -318 -320 -390q-265 -327 -273 -650zM830 914q1 66 69 127q13 11 50 11h12 q23 -2 34 -21q13 -23 13 -48q0 -23 -10 -47q-22 -51 -73 -74q-5 -2 -23 -5q-24 -2 -48.5 17.5t-23.5 39.5z" />
<glyph unicode="&#xc3;" d="M102 148v14q0 107 14 193q16 92 63 175q103 183 240 384q12 18 31 38.5t32 32.5t40 36.5t36 32.5q34 32 50 62q11 20 11 44q0 11 -2 22q-3 17 -3 34q0 122 183 190q76 28 148 28q105 0 197 -61q145 -95 179 -203q14 -44 26 -90.5t26.5 -108.5t19.5 -82 q-10 -58 -28.5 -175t-33.5 -203.5t-30 -164.5q-29 -150 -182 -303q-43 -43 -100 -43h-7q-62 2 -107 50q-134 138 -134 299q0 16 1 33q6 23 3 52t-30 47q-19 13 -54.5 -5t-68.5 -58q-18 -22 -49.5 -62t-58 -72.5t-51.5 -60.5q-50 -54 -124 -104q-36 -23 -102 -38 q-18 -4 -35 -4q-31 0 -58 13q-42 20 -42 58zM210 223q0 -17 35 -39q5 -3 20 0t21 8q56 47 136 121q49 45 146 137t146 138q21 20 47.5 27t54.5 -3q48 -21 66 -67q6 -15 8 -32.5t3 -39t1 -33.5q2 -19 4.5 -56t5.5 -66t9 -55q10 -47 33.5 -79.5t75.5 -47.5q9 -3 18 -3 q25 0 51 21q35 28 64 87q6 12 15.5 35.5t13.5 32.5q41 93 59.5 273.5t43.5 260.5q-8 25 -26.5 92t-34 116.5t-33.5 95.5q-49 125 -227 163q-19 4 -39 4q-27 0 -53 -8q-46 -14 -71 -43q-262 -318 -320 -390q-265 -327 -273 -650zM830 914q1 66 69 127q13 11 50 11h12 q23 -2 34 -21q13 -23 13 -48q0 -23 -10 -47q-22 -51 -73 -74q-5 -2 -23 -5q-24 -2 -48.5 17.5t-23.5 39.5z" />
<glyph unicode="&#xc2;" d="M102 148v14q0 107 14 193q16 92 63 175q103 183 240 384q12 18 31 38.5t32 32.5t40 36.5t36 32.5q34 32 50 62q11 20 11 44q0 11 -2 22q-3 17 -3 34q0 122 183 190q76 28 148 28q105 0 197 -61q145 -95 179 -203q14 -44 26 -90.5t26.5 -108.5t19.5 -82 q-10 -58 -28.5 -175t-33.5 -203.5t-30 -164.5q-29 -150 -182 -303q-43 -43 -100 -43h-7q-62 2 -107 50q-134 138 -134 299q0 16 1 33q6 23 3 52t-30 47q-19 13 -54.5 -5t-68.5 -58q-18 -22 -49.5 -62t-58 -72.5t-51.5 -60.5q-50 -54 -124 -104q-36 -23 -102 -38 q-18 -4 -35 -4q-31 0 -58 13q-42 20 -42 58zM210 223q0 -17 35 -39q5 -3 20 0t21 8q56 47 136 121q49 45 146 137t146 138q21 20 47.5 27t54.5 -3q48 -21 66 -67q6 -15 8 -32.5t3 -39t1 -33.5q2 -19 4.5 -56t5.5 -66t9 -55q10 -47 33.5 -79.5t75.5 -47.5q9 -3 18 -3 q25 0 51 21q35 28 64 87q6 12 15.5 35.5t13.5 32.5q41 93 59.5 273.5t43.5 260.5q-8 25 -26.5 92t-34 116.5t-33.5 95.5q-49 125 -227 163q-19 4 -39 4q-27 0 -53 -8q-46 -14 -71 -43q-262 -318 -320 -390q-265 -327 -273 -650zM830 914q1 66 69 127q13 11 50 11h12 q23 -2 34 -21q13 -23 13 -48q0 -23 -10 -47q-22 -51 -73 -74q-5 -2 -23 -5q-24 -2 -48.5 17.5t-23.5 39.5z" />
<glyph unicode="&#xc1;" d="M102 148v14q0 107 14 193q16 92 63 175q103 183 240 384q12 18 31 38.5t32 32.5t40 36.5t36 32.5q34 32 50 62q11 20 11 44q0 11 -2 22q-3 17 -3 34q0 122 183 190q76 28 148 28q105 0 197 -61q145 -95 179 -203q14 -44 26 -90.5t26.5 -108.5t19.5 -82 q-10 -58 -28.5 -175t-33.5 -203.5t-30 -164.5q-29 -150 -182 -303q-43 -43 -100 -43h-7q-62 2 -107 50q-134 138 -134 299q0 16 1 33q6 23 3 52t-30 47q-19 13 -54.5 -5t-68.5 -58q-18 -22 -49.5 -62t-58 -72.5t-51.5 -60.5q-50 -54 -124 -104q-36 -23 -102 -38 q-18 -4 -35 -4q-31 0 -58 13q-42 20 -42 58zM210 223q0 -17 35 -39q5 -3 20 0t21 8q56 47 136 121q49 45 146 137t146 138q21 20 47.5 27t54.5 -3q48 -21 66 -67q6 -15 8 -32.5t3 -39t1 -33.5q2 -19 4.5 -56t5.5 -66t9 -55q10 -47 33.5 -79.5t75.5 -47.5q9 -3 18 -3 q25 0 51 21q35 28 64 87q6 12 15.5 35.5t13.5 32.5q41 93 59.5 273.5t43.5 260.5q-8 25 -26.5 92t-34 116.5t-33.5 95.5q-49 125 -227 163q-19 4 -39 4q-27 0 -53 -8q-46 -14 -71 -43q-262 -318 -320 -390q-265 -327 -273 -650zM830 914q1 66 69 127q13 11 50 11h12 q23 -2 34 -21q13 -23 13 -48q0 -23 -10 -47q-22 -51 -73 -74q-5 -2 -23 -5q-24 -2 -48.5 17.5t-23.5 39.5z" />
<glyph unicode="&#xc0;" d="M102 148v14q0 107 14 193q16 92 63 175q103 183 240 384q12 18 31 38.5t32 32.5t40 36.5t36 32.5q34 32 50 62q11 20 11 44q0 11 -2 22q-3 17 -3 34q0 122 183 190q76 28 148 28q105 0 197 -61q145 -95 179 -203q14 -44 26 -90.5t26.5 -108.5t19.5 -82 q-10 -58 -28.5 -175t-33.5 -203.5t-30 -164.5q-29 -150 -182 -303q-43 -43 -100 -43h-7q-62 2 -107 50q-134 138 -134 299q0 16 1 33q6 23 3 52t-30 47q-19 13 -54.5 -5t-68.5 -58q-18 -22 -49.5 -62t-58 -72.5t-51.5 -60.5q-50 -54 -124 -104q-36 -23 -102 -38 q-18 -4 -35 -4q-31 0 -58 13q-42 20 -42 58zM210 223q0 -17 35 -39q5 -3 20 0t21 8q56 47 136 121q49 45 146 137t146 138q21 20 47.5 27t54.5 -3q48 -21 66 -67q6 -15 8 -32.5t3 -39t1 -33.5q2 -19 4.5 -56t5.5 -66t9 -55q10 -47 33.5 -79.5t75.5 -47.5q9 -3 18 -3 q25 0 51 21q35 28 64 87q6 12 15.5 35.5t13.5 32.5q41 93 59.5 273.5t43.5 260.5q-8 25 -26.5 92t-34 116.5t-33.5 95.5q-49 125 -227 163q-19 4 -39 4q-27 0 -53 -8q-46 -14 -71 -43q-262 -318 -320 -390q-265 -327 -273 -650zM830 914q1 66 69 127q13 11 50 11h12 q23 -2 34 -21q13 -23 13 -48q0 -23 -10 -47q-22 -51 -73 -74q-5 -2 -23 -5q-24 -2 -48.5 17.5t-23.5 39.5z" />
<glyph unicode="B" d="M102 387q0 42 12 90q4 15 40.5 150.5t60.5 204.5q26 74 97 145q104 104 148 197q36 77 122.5 135.5t203.5 95.5q87 29 177 29q14 0 28 -1q105 -5 191 -34t142.5 -84.5t60.5 -122.5v-14q0 -75 -37 -203q-6 -20 -18 -41.5t-32 -51t-29 -44.5q123 -164 123 -308 q0 -32 -6 -62q-32 -170 -248 -328q-104 -77 -243.5 -108t-315.5 -32q-75 0 -143 33q-59 29 -106.5 58t-90 63t-70 69t-47.5 76q-20 42 -20 88zM273 496q-5 -25 -5 -48q0 -151 187 -260q105 -60 223 -72q24 -2 47 -3q94 0 184 37q335 151 346 384q-1 62 -18.5 94.5t-61 53.5 t-136.5 41q-10 2 -30.5 4.5t-29.5 4.5q-65 14 -77 50q-2 7 -2 13q0 27 43 45q221 93 286 253q10 25 10 48q0 37 -25 69q-41 52 -140 77q-53 14 -111 14q-64 0 -133 -17q-209 -51 -325 -207q-95 -128 -148.5 -270t-83.5 -311zM591 428q-7 13 -7 24q0 18 16 36q26 28 82 33 q5 -4 19.5 -13t25 -17.5t14.5 -17.5q3 -9 3 -18q0 -23 -22 -41q-26 -22 -58 -22q-6 0 -13 1q-18 2 -36 13t-24 22zM840 1053q-2 4 0.5 10t8 13.5t7.5 11.5q9 -2 26.5 -8t25.5 -8q-3 -5 -11 -16.5t-12 -17.5q-5 2 -17 4.5t-19.5 5t-8.5 5.5z" />
<glyph unicode="C" horiz-adv-x="1497" d="M108 473q-1 20 -1 40q0 60 11 125q15 87 32 139.5t55 154t50 136.5q8 21 26 36q72 59 131.5 101.5t137.5 88t151.5 74t165.5 47t188 19.5h3q169 0 273 -107q24 -25 24 -54q0 -34 -29 -61q-86 -77 -254 -108q-182 -35 -327 -173q-95 -91 -95 -201v-11q5 -116 113 -209 q41 -36 96 -36q24 0 50 7q29 7 102 26t126 31.5t103 21.5q20 4 37 4q42 0 73 -22q43 -32 43 -89q0 -126 -105 -234q-137 -139 -341 -195q-84 -24 -161 -24q-79 0 -151 25q-35 12 -103 30.5t-98 27.5q-122 40 -235 136q-97 83 -97 196q0 28 6 58zM281 607q-4 -36 -4 -70 q0 -286 300 -348q20 -4 57 -14.5t43 -12.5q71 -18 142 -19q103 0 205 39q172 65 239 202q4 7 -12.5 24t-27.5 18h-3q-27 0 -99 -17l-80 -20t-94.5 -23t-80.5 -17q-28 -5 -54 -5q-83 0 -142 51q-177 150 -182 321v10q0 166 168 311q89 76 177.5 125t196.5 68q32 5 70 30 q8 5 13 16t3 19q-2 9 -11.5 19t-18.5 11q-5 0 -31.5 2.5t-37 2.5t-29.5 -0.5t-33 -4.5q-244 -62 -394 -172q-96 -71 -143 -149q-90 -149 -137 -397z" />
<glyph unicode="D" d="M102.5 414q1.5 39 2.5 56t4.5 62t4.5 57q9 122 49 411q10 80 41 180q37 122 157 145q18 4 25 8q70 45 141.5 70t143.5 28q24 1 47 1q46 0 89 -4q64 -6 140 -29.5t132 -45.5t133 -56q181 -80 180 -304q0 -27 -2 -56q-5 -50 -11 -70q-118 -403 -419 -661 q-95 -81 -215 -126.5t-273 -71.5q-46 -8 -85 -8q-75 0 -127 28q-80 42 -123 151q-11 28 -18.5 56.5t-10.5 61.5t-5 55.5t-0.5 61.5zM270 488q35 -212 46 -259q9 -37 59 -65q36 -20 66 -20q12 0 24 4q25 7 83.5 21.5t91.5 24t78 26t78 35.5q100 57 178 130.5t132 159 t90 173.5t62 191q7 29 7 55q0 126 -158 220q-158 92 -388 104q-11 1 -21 1l-137 -23q-79 -26 -135 -72.5t-71 -102.5q-81 -307 -85 -603zM599 678q1 148 146 192q13 4 28 4q21 0 43 -8q38 -14 39 -39q1 -15 1 -30q0 -157 -88 -250q-10 -11 -33 -18t-40 -5q-18 2 -36.5 14 t-24.5 25q-8 19 -15 40.5t-12.5 44.5t-7.5 30z" />
<glyph unicode="E" horiz-adv-x="1497" d="M106 824q1 36 36 124q14 35 63.5 148t72.5 176q40 108 201 140q76 15 147 16q194 6 387 6q91 0 148 -11q98 -18 147 -69q38 -40 38 -91q0 -15 -3 -30q-38 -199 -274 -252q-33 -8 -69 -18.5t-79 -24t-67 -20.5q1 -7 3 -20.5t3 -21.5q219 -3 262 -3q88 -3 136.5 -37 t52.5 -96q1 -13 1 -27q0 -47 -11 -99q-4 -16 -4 -31q0 -51 42 -88q54 -47 54 -104q0 -44 -33 -95q-43 -66 -104 -120.5t-144 -96.5q-84 -43 -180 -63q-75 -16 -164 -15q-26 0 -53 1q-120 6 -247 43q-342 99 -359 356q-6 96 -6 225q0 91 3 198zM269 602q-2 -25 -2 -48 q0 -42 6 -78q9 -56 31 -110q55 -141 222 -184q125 -32 228 -44q28 -3 56 -3q104 0 208 44q130 56 187 150q11 18 -5 42.5t-40 25.5q-34 2 -103 4.5t-103 5.5q-196 16 -262 28q-20 4 -39 26t-17 38q1 16 23.5 34t46.5 23q46 11 143 27t143 27q25 6 40.5 12t33.5 18.5t25.5 33 t4.5 48.5q-22 1 -75 5t-80 6q-22 2 -65.5 3.5t-77.5 4t-63 8.5q-128 25 -156 101q-6 17 -6 35q0 58 73 110q50 35 149 65q27 8 85.5 18t85.5 18q95 29 148 65q18 12 26.5 35.5t0.5 40.5q-8 16 -34 32t-50 17q-97 6 -186 6q-224 0 -407 -39q-4 -8 -20.5 -41.5t-21.5 -43.5 t-20 -40.5t-20.5 -43.5t-18 -41t-18 -44t-14.5 -41t-14.5 -44.5t-10.5 -42t-9 -44.5q-14 -86 -18.5 -120.5t-9.5 -104.5z" />
<glyph unicode="&#xca;" horiz-adv-x="1497" d="M106 824q1 36 36 124q14 35 63.5 148t72.5 176q40 108 201 140q76 15 147 16q194 6 387 6q91 0 148 -11q98 -18 147 -69q38 -40 38 -91q0 -15 -3 -30q-38 -199 -274 -252q-33 -8 -69 -18.5t-79 -24t-67 -20.5q1 -7 3 -20.5t3 -21.5q219 -3 262 -3q88 -3 136.5 -37 t52.5 -96q1 -13 1 -27q0 -47 -11 -99q-4 -16 -4 -31q0 -51 42 -88q54 -47 54 -104q0 -44 -33 -95q-43 -66 -104 -120.5t-144 -96.5q-84 -43 -180 -63q-75 -16 -164 -15q-26 0 -53 1q-120 6 -247 43q-342 99 -359 356q-6 96 -6 225q0 91 3 198zM269 602q-2 -25 -2 -48 q0 -42 6 -78q9 -56 31 -110q55 -141 222 -184q125 -32 228 -44q28 -3 56 -3q104 0 208 44q130 56 187 150q11 18 -5 42.5t-40 25.5q-34 2 -103 4.5t-103 5.5q-196 16 -262 28q-20 4 -39 26t-17 38q1 16 23.5 34t46.5 23q46 11 143 27t143 27q25 6 40.5 12t33.5 18.5t25.5 33 t4.5 48.5q-22 1 -75 5t-80 6q-22 2 -65.5 3.5t-77.5 4t-63 8.5q-128 25 -156 101q-6 17 -6 35q0 58 73 110q50 35 149 65q27 8 85.5 18t85.5 18q95 29 148 65q18 12 26.5 35.5t0.5 40.5q-8 16 -34 32t-50 17q-97 6 -186 6q-224 0 -407 -39q-4 -8 -20.5 -41.5t-21.5 -43.5 t-20 -40.5t-20.5 -43.5t-18 -41t-18 -44t-14.5 -41t-14.5 -44.5t-10.5 -42t-9 -44.5q-14 -86 -18.5 -120.5t-9.5 -104.5z" />
<glyph unicode="&#xc9;" horiz-adv-x="1497" d="M106 824q1 36 36 124q14 35 63.5 148t72.5 176q40 108 201 140q76 15 147 16q194 6 387 6q91 0 148 -11q98 -18 147 -69q38 -40 38 -91q0 -15 -3 -30q-38 -199 -274 -252q-33 -8 -69 -18.5t-79 -24t-67 -20.5q1 -7 3 -20.5t3 -21.5q219 -3 262 -3q88 -3 136.5 -37 t52.5 -96q1 -13 1 -27q0 -47 -11 -99q-4 -16 -4 -31q0 -51 42 -88q54 -47 54 -104q0 -44 -33 -95q-43 -66 -104 -120.5t-144 -96.5q-84 -43 -180 -63q-75 -16 -164 -15q-26 0 -53 1q-120 6 -247 43q-342 99 -359 356q-6 96 -6 225q0 91 3 198zM269 602q-2 -25 -2 -48 q0 -42 6 -78q9 -56 31 -110q55 -141 222 -184q125 -32 228 -44q28 -3 56 -3q104 0 208 44q130 56 187 150q11 18 -5 42.5t-40 25.5q-34 2 -103 4.5t-103 5.5q-196 16 -262 28q-20 4 -39 26t-17 38q1 16 23.5 34t46.5 23q46 11 143 27t143 27q25 6 40.5 12t33.5 18.5t25.5 33 t4.5 48.5q-22 1 -75 5t-80 6q-22 2 -65.5 3.5t-77.5 4t-63 8.5q-128 25 -156 101q-6 17 -6 35q0 58 73 110q50 35 149 65q27 8 85.5 18t85.5 18q95 29 148 65q18 12 26.5 35.5t0.5 40.5q-8 16 -34 32t-50 17q-97 6 -186 6q-224 0 -407 -39q-4 -8 -20.5 -41.5t-21.5 -43.5 t-20 -40.5t-20.5 -43.5t-18 -41t-18 -44t-14.5 -41t-14.5 -44.5t-10.5 -42t-9 -44.5q-14 -86 -18.5 -120.5t-9.5 -104.5z" />
<glyph unicode="&#xc8;" horiz-adv-x="1497" d="M106 824q1 36 36 124q14 35 63.5 148t72.5 176q40 108 201 140q76 15 147 16q194 6 387 6q91 0 148 -11q98 -18 147 -69q38 -40 38 -91q0 -15 -3 -30q-38 -199 -274 -252q-33 -8 -69 -18.5t-79 -24t-67 -20.5q1 -7 3 -20.5t3 -21.5q219 -3 262 -3q88 -3 136.5 -37 t52.5 -96q1 -13 1 -27q0 -47 -11 -99q-4 -16 -4 -31q0 -51 42 -88q54 -47 54 -104q0 -44 -33 -95q-43 -66 -104 -120.5t-144 -96.5q-84 -43 -180 -63q-75 -16 -164 -15q-26 0 -53 1q-120 6 -247 43q-342 99 -359 356q-6 96 -6 225q0 91 3 198zM269 602q-2 -25 -2 -48 q0 -42 6 -78q9 -56 31 -110q55 -141 222 -184q125 -32 228 -44q28 -3 56 -3q104 0 208 44q130 56 187 150q11 18 -5 42.5t-40 25.5q-34 2 -103 4.5t-103 5.5q-196 16 -262 28q-20 4 -39 26t-17 38q1 16 23.5 34t46.5 23q46 11 143 27t143 27q25 6 40.5 12t33.5 18.5t25.5 33 t4.5 48.5q-22 1 -75 5t-80 6q-22 2 -65.5 3.5t-77.5 4t-63 8.5q-128 25 -156 101q-6 17 -6 35q0 58 73 110q50 35 149 65q27 8 85.5 18t85.5 18q95 29 148 65q18 12 26.5 35.5t0.5 40.5q-8 16 -34 32t-50 17q-97 6 -186 6q-224 0 -407 -39q-4 -8 -20.5 -41.5t-21.5 -43.5 t-20 -40.5t-20.5 -43.5t-18 -41t-18 -44t-14.5 -41t-14.5 -44.5t-10.5 -42t-9 -44.5q-14 -86 -18.5 -120.5t-9.5 -104.5z" />
<glyph unicode="F" horiz-adv-x="1497" d="M104 440q-1 29 -1 57q0 132 12 245q14 137 43 311q3 19 14.5 73.5t15.5 83.5q11 78 65.5 128t143.5 61q9 1 62.5 8t66.5 8.5t62 7t67 5.5q17 1 61 4q29 2 49 2h18q23 -2 62 -3t67 -5.5t62 -11.5t66 -16q24 -7 81.5 -12.5t84.5 -15.5q76 -28 156 -90q31 -23 31 -63 q0 -38 -27 -63q-21 -21 -45.5 -43t-55 -48.5t-45.5 -39.5q0 -4 -1 -10.5t-1 -10t2 -6.5q6 -11 18 -28t19 -27.5t15.5 -28.5t7.5 -30.5t-5 -33.5q-37 -105 -165 -148q-66 -22 -139.5 -44t-178.5 -52.5t-164 -48.5q-41 -32 -68 -161q-3 -16 -10 -56t-14.5 -68.5t-18.5 -53.5 q-33 -75 -107 -156q-56 -60 -135 -60q-19 0 -40 3q-28 5 -47 16.5t-29.5 31.5t-14.5 34.5t-9 41.5q-28 147 -31 313zM264 578q-1 -42 -1 -82q0 -125 11 -234q4 -55 69 -55h9q33 43 50.5 100t24.5 111t15.5 109t32 110.5t65.5 99.5q46 9 120.5 12.5t127 6.5t114.5 23.5 t105 61.5q-33 62 -136 62h-7q-35 1 -132 -5q-71 -4 -118 -5q-17 0 -31 1q-20 1 -42.5 17.5t-34.5 35.5q-7 10 2 30.5t23 28.5q206 119 437 148q27 3 138 22q-95 77 -114 87q-20 11 -47 11h-140q-228 0 -337 -5q-52 -3 -83 -32.5t-39 -75.5q-4 -24 -19 -120.5t-27 -148.5 q-32 -142 -36 -314z" />
<glyph unicode="G" horiz-adv-x="1497" d="M187 942q127 244 327 361t469 130h8q66 0 192 -45q92 -34 96 -125v-14q0 -129 -86 -174q-120 -63 -193 -76q-75 -14 -150 -59.5t-111.5 -79.5t-114.5 -115l-23 -23q-29 -30 -35 -58q-3 -10 -3 -23q0 -19 6 -41q10 -37 42 -108q106 126 122 145q95 114 244 119q86 2 127 2 q27 0 34 -1q152 -15 234 -175q21 -42 21 -79q0 -33 -17 -63q-7 -12 -31.5 -55.5t-36 -62.5t-33 -49.5t-42.5 -52.5q-152 -161 -399 -206q-78 -15 -151 -15q-156 0 -287 66q-103 51 -158 138q-134 209 -134 415q0 163 83 324zM289 411q79 -171 226 -229q99 -39 202 -39 q66 0 134 16q213 50 347 182q35 35 48 77q5 18 5 35q0 22 -9 42q-40 91 -125 95q-23 1 -243 1q11 -10 20.5 -19t14 -13.5l8.5 -8.5t5.5 -5t3.5 -2q51 -13 78 -35q24 -21 24 -64v-10q-2 -48 -26 -83t-64 -48q-104 -34 -268 -59h-7q-27 0 -81 25q-57 27 -99 85t-61 126 q-13 50 -13 104q0 19 1 38q7 75 42 133q172 285 458 393q21 8 66.5 18.5t82.5 25t68 42.5q-12 7 -25.5 17.5t-23 16.5t-18.5 8q-49 11 -98 13h-16q-40 0 -82 -8q-49 -10 -88 -21t-92 -35t-84.5 -39.5t-87.5 -45.5q-44 -23 -100 -100q-50 -67 -116 -183q-60 -106 -60 -221 q0 -109 53 -225z" />
<glyph unicode="H" d="M105 508q4 48 9 145t10 146q16 169 48 415q9 64 81 119q55 41 118 43q2 0 5 1q60 -1 106 -37q48 -38 63 -101q5 -22 9 -63.5t8 -60.5q3 -15 8.5 -31.5t13 -37t11.5 -34.5q28 -1 131 -4.5t158 -4.5h4q36 0 60 18q24 19 25 55q1 25 5.5 49t15.5 52t17 42.5t22.5 50 t20.5 43.5q25 52 45 70q57 51 104 51q54 0 92 -69q24 -43 40 -88t25 -104.5t12.5 -89.5t9.5 -103q5 -61 7 -174t3 -139q1 -15 1 -30q0 -284 -218 -593q-5 -7 -32 -29q-19 -16 -46 -16q-13 0 -28 4q-45 12 -53 47q-4 20 -12 123q-2 24 -9.5 129t-13.5 162q-1 12 -5 25 t-11 31.5t-11 30.5q-101 9 -154 9q-25 0 -40 -2q-47 -6 -183 -56q-14 -29 -58.5 -125t-70.5 -150q-55 -117 -75 -150q-31 -51 -100 -51h-13q-38 2 -64.5 20.5t-34.5 50.5q-33 126 -49 221q-10 63 -10 125q0 33 3 65zM238 716q3 -29 4 -64t1 -60t-0.5 -65.5t-0.5 -61.5 q0 -67 12.5 -125t51.5 -128q11 22 23 45t19 36t12 23q14 28 40.5 83.5t48.5 99t44 81.5q16 28 42.5 51t51.5 28q23 4 91 18.5t102 20.5q32 6 88 12q42 5 81 5q13 0 23 -1q48 -2 94 -11q28 -35 39.5 -78.5t11.5 -86.5q1 -42 -1 -86q0 -7 -1 -14q-1 -37 7 -76q8 -46 32 -83 q7 6 18 14.5t17 13.5t11.5 11t7.5 12q7 21 21.5 63t22.5 68t16 62t9 67q2 56 2 108q0 297 -53 494q-2 8 -9 15t-20.5 18t-22.5 20q-6 -11 -19.5 -32t-20.5 -35t-11 -28q-7 -26 -11 -75.5t-8 -69.5q-15 -84 -94 -107q-98 -28 -149 -32q-35 -3 -264 -11q-20 -1 -36 -1 q-33 0 -52 3q-62 9 -75 67q-4 20 -4.5 59.5t-0.5 44.5q-7 113 -13 144q-4 21 -21 34.5t-42 13.5q-26 0 -42 -13.5t-19 -35.5q-6 -47 -25 -141q-19 -96 -27 -170q-5 -41 -5 -80q0 -32 3 -64z" />
<glyph unicode="I" horiz-adv-x="636" d="M102 411q17 143 55 457q4 30 18 151t23 186q21 149 119 225q43 34 82 34q15 0 31 -6q52 -20 68 -100q35 -181 34 -351q0 -237 -67 -453q-16 -49 -38 -144.5t-34 -137.5q-30 -105 -73 -209q-26 -63 -87 -63h-9q-60 4 -83 83q-20 67 -25 109q-2 18 -14 219zM234 1762 q-10 29 -10 59q0 46 24 94q38 79 105 91q21 3 38 -6q37 -20 59 -60q20 -37 19 -77v-8q-3 -67 -53 -116q-44 -43 -94 -43q-7 0 -14 1q-54 6 -74 65zM244 252q22 -4 34 10t19 40q13 49 48 183.5t55 206.5q34 125 34 252q0 150 -48 303q-2 7 -9 12.5t-18 11.5t-16 10 q-62 -199 -93 -522q-17 -179 -17 -315q0 -110 11 -192z" />
<glyph unicode="&#xce;" horiz-adv-x="636" d="M102 411q17 143 55 457q4 30 18 151t23 186q21 149 119 225q43 34 82 34q15 0 31 -6q52 -20 68 -100q35 -181 34 -351q0 -237 -67 -453q-16 -49 -38 -144.5t-34 -137.5q-30 -105 -73 -209q-26 -63 -87 -63h-9q-60 4 -83 83q-20 67 -25 109q-2 18 -14 219zM234 1762 q-10 29 -10 59q0 46 24 94q38 79 105 91q21 3 38 -6q37 -20 59 -60q20 -37 19 -77v-8q-3 -67 -53 -116q-44 -43 -94 -43q-7 0 -14 1q-54 6 -74 65zM244 252q22 -4 34 10t19 40q13 49 48 183.5t55 206.5q34 125 34 252q0 150 -48 303q-2 7 -9 12.5t-18 11.5t-16 10 q-62 -199 -93 -522q-17 -179 -17 -315q0 -110 11 -192z" />
<glyph unicode="&#xcd;" horiz-adv-x="636" d="M102 411q17 143 55 457q4 30 18 151t23 186q21 149 119 225q43 34 82 34q15 0 31 -6q52 -20 68 -100q35 -181 34 -351q0 -237 -67 -453q-16 -49 -38 -144.5t-34 -137.5q-30 -105 -73 -209q-26 -63 -87 -63h-9q-60 4 -83 83q-20 67 -25 109q-2 18 -14 219zM234 1762 q-10 29 -10 59q0 46 24 94q38 79 105 91q21 3 38 -6q37 -20 59 -60q20 -37 19 -77v-8q-3 -67 -53 -116q-44 -43 -94 -43q-7 0 -14 1q-54 6 -74 65zM244 252q22 -4 34 10t19 40q13 49 48 183.5t55 206.5q34 125 34 252q0 150 -48 303q-2 7 -9 12.5t-18 11.5t-16 10 q-62 -199 -93 -522q-17 -179 -17 -315q0 -110 11 -192z" />
<glyph unicode="&#xcc;" horiz-adv-x="636" d="M102 411q17 143 55 457q4 30 18 151t23 186q21 149 119 225q43 34 82 34q15 0 31 -6q52 -20 68 -100q35 -181 34 -351q0 -237 -67 -453q-16 -49 -38 -144.5t-34 -137.5q-30 -105 -73 -209q-26 -63 -87 -63h-9q-60 4 -83 83q-20 67 -25 109q-2 18 -14 219zM234 1762 q-10 29 -10 59q0 46 24 94q38 79 105 91q21 3 38 -6q37 -20 59 -60q20 -37 19 -77v-8q-3 -67 -53 -116q-44 -43 -94 -43q-7 0 -14 1q-54 6 -74 65zM244 252q22 -4 34 10t19 40q13 49 48 183.5t55 206.5q34 125 34 252q0 150 -48 303q-2 7 -9 12.5t-18 11.5t-16 10 q-62 -199 -93 -522q-17 -179 -17 -315q0 -110 11 -192z" />
<glyph unicode="J" horiz-adv-x="1064" d="M102 456.5q0 20.5 3 41.5q9 73 20 99q21 47 99 196q26 49 77 49h1q53 -1 78 -52q16 -33 43 -134q5 -19 15.5 -65.5t17.5 -70.5q2 -8 12.5 -17t15.5 -7q34 9 43 29q16 38 33 116q3 14 20 103.5t30 135.5q30 110 36 323q2 92 37 156q30 53 75 57h6q41 0 72 -46 q52 -78 54 -172q1 0 1 -54v-68l-1 -122q1 0 4 -1t5 -1q-52 -388 -56 -423q-8 -77 -39 -155.5t-62.5 -130.5t-86.5 -130q-52 -75 -135 -102q-38 -12 -76 -12l-92 18q-83 33 -132 121q-6 11 -18 32.5t-19 33.5t-18 33t-17 34.5t-14.5 34.5t-13 36.5t-9.5 36t-7 39t-2 39z M222 403q44 -118 60 -150q36 -71 96 -101q36 -17 74 -17q24 0 49 7q63 19 109 83q104 142 145 306q23 93 31 192t8.5 247t2.5 208q-10 -11 -23 -23.5t-19 -19t-7 -13.5q-13 -70 -42.5 -239t-48.5 -260q-25 -126 -70 -232q-32 -76 -80 -76q-36 0 -82 45q-46 44 -69.5 105.5 t-43.5 166.5q-57 -88 -74 -114q-25 -35 -25 -72q0 -21 9 -43zM699 1808q12 87 54.5 127.5t153.5 71.5q55 -73 55 -140q0 -22 -6 -43q-26 -92 -112 -130q-30 -13 -55 -13q-30 0 -53 18q-39 30 -39 85q0 11 2 24z" />
<glyph unicode="K" d="M104 406l-2 44q0 36 4 69q6 52 21 103q26 88 86 384q53 254 120 412q12 -1 53.5 -5t60.5 -3q19 2 53.5 10.5t49.5 10.5q22 3 41 3q118 0 133 -115q3 -23 3.5 -66t1.5 -59q2 -37 10 -106l15 -25q6 2 23 7t28 9.5t18 10.5q39 34 229 209q86 80 116 104q36 30 93 30 q12 0 25 -1q61 -7 88 -34q18 -18 18 -45q0 -13 -4 -28q-26 -87 -63 -150q-40 -69 -128 -184q-2 -3 -151 -182q42 -93 42 -94q6 -16 17.5 -49.5t18.5 -53.5t14.5 -48.5t11.5 -53.5q6 -40 8 -81t2 -105q1 -66 1 -84q0 -97 -58 -184q-29 -43 -80 -53q-13 -3 -27 -3l-75 21 q-61 35 -83 76q-22 43 -62 169q-11 36 -30 101.5t-26 88.5q-1 2 -5 20.5t-7 25t-12.5 16t-23.5 11.5q-16 3 -28 0.5t-20.5 -11.5t-12.5 -15t-10.5 -21t-8.5 -19q-115 -229 -144 -296q-39 -88 -129 -137q-37 -20 -71 -20q-16 0 -31 4q-48 14 -68 63q-1 2 -3.5 7.5t-3.5 8.5 q-4 27 -15.5 102t-15 112.5t-7.5 98.5zM234 358q14 -116 60 -234q15 27 34 58.5t29 50.5t17 35q85 212 206 370q7 10 20 31.5t21.5 33.5t27 22.5t41.5 9.5q19 0 34.5 -7t24.5 -13t18 -22.5t11.5 -22.5t9.5 -28t8 -24q21 -60 53.5 -175.5t38.5 -134.5q30 -104 53 -153 q6 -12 25 -22t39 -13q8 -1 23.5 11t18.5 23q19 70 19 114v8q-3 85 -7.5 133t-17.5 119t-41.5 130t-72.5 113l-8 16q-17 35 -10 61t45 48q167 98 255 279q8 17 28 48.5t28 47.5q3 6 -0.5 18t-7.5 13q-31 5 -56 -2q-11 -3 -31 -23q-19 -18 -130 -121t-168 -158 q-63 -60 -139 -77q-10 -2 -21 -2q-20 1 -43 9q-35 14 -42 36q-18 59 -18 100q0 11 1 21q4 27 4 54q0 85 -39 163q-78 10 -162 21q-60 -92 -65 -213q-7 -155 -65 -333q-35 -107 -49 -205q-7 -49 -7 -102.5t7 -111.5z" />
<glyph unicode="L" horiz-adv-x="1067" d="M103 298v36q1 24 1 40q2 27 7.5 90.5t6.5 78.5q23 297 157 749q0 2 51 117q154 23 172 24q8 1 15 1q41 0 71 -20q35 -23 39 -64q3 -38 3 -73q0 -61 -10 -111q-66 -351 -78 -572q-1 -22 -1 -113q10 -11 21 -18t18.5 -11t21 -6t18 -2.5t20.5 0t18 0.5q47 1 82 1q52 0 77 -2 q86 -7 125 -54q25 -30 24 -68q0 -23 -8 -49q-9 -28 -25 -51q-77 -107 -247 -173q-128 -49 -243 -49q-39 0 -76 6q-222 33 -252 205q-7 40 -8 88zM220 349v-8q0 -155 80 -205q54 -34 165 -34q59 0 135 10q61 9 104 35q87 54 130 99q19 20 19 42q-1 14 -9 29q-21 36 -69 36h-3 q-53 -1 -178 -20q-18 -3 -54 -12.5t-54 -12.5q-26 -4 -46 7.5t-22 29.5q-7 71 -7 125q0 45 5 78q19 133 58.5 379.5t47.5 299.5q5 28 -3 55q-2 9 -10.5 17.5t-15.5 9.5q-39 6 -62 -5q-24 -11 -39.5 -30.5t-21 -37t-10.5 -43.5q-86 -447 -121 -641q-6 -33 -12.5 -85t-6.5 -53 v-65z" />
<glyph unicode="M" d="M103 665v38q0 131 11 333q10 186 97 351q23 2 61 -2q25 -3 47 -3q11 0 21 1q30 2 57 20q10 7 21.5 11.5t27.5 7.5t26 4.5t30 3t27 2.5l26 2q82 0 138 -62q48 -54 74.5 -87.5t54.5 -87.5t35 -108q2 -15 7 -31t13 -36t11 -28q30 -4 52.5 2.5t37 22t22 29t15.5 33.5 q45 111 137 199q75 72 135 72q25 0 47 -13q29 -17 43 -45.5t15 -50t0 -60.5q-2 -42 -17 -152q-2 -17 -9.5 -69.5l-10 -70t-9.5 -69.5t-8.5 -69.5t-7 -70t-5.5 -70.5t-4 -70q-3 -35 -3 -54q0 -10 1 -16q1 -12 1 -39v-31v-11q0 -132 -91 -254q-16 -22 -74 -48q-23 -10 -55 7 t-34 40q-3 27 -3 51q0 19 2 35q6 64 13.5 136.5t16.5 164t15 146.5q-11 -5 -25.5 -10.5t-22.5 -9.5t-12 -9q-13 -20 -38.5 -65.5t-41.5 -67.5q-27 -37 -81 -75q-23 -16 -51 -16q-13 0 -27 4q-44 12 -57 48q-13 40 -36 169q-4 21 -6 58.5t-3 42.5q-22 11 -38 11 q-29 0 -44 -33q-53 -118 -79 -204q-14 -46 -33.5 -132.5t-29.5 -122.5q-27 -99 -55 -166q-37 -90 -118 -91q-35 -1 -59.5 17.5t-49.5 52.5q-70 96 -80 225q-19 287 -20 370zM238 1059q-20 -144 -19 -305q0 -240 43 -519q2 -11 8.5 -22.5t17 -25.5t14.5 -21q20 5 33.5 13.5 t21.5 22t11 22.5t8 27q86 329 108 400q32 107 91 181.5t160 108.5q10 45 10 85q1 49 -15 90q-28 74 -100 142q-44 42 -86 51q-12 3 -26 3q-33 0 -75 -16q-90 -36 -141.5 -92t-63.5 -145zM846 657q-1 -25 11 -39.5t42 -6.5q124 176 155 214q26 33 56 35q3 0 6 1q29 0 78 -22 q3 -2 55 -20q48 159 50 223v6q0 63 -38 157q-4 -1 -14 -4t-16.5 -5.5t-9.5 -6.5q-151 -213 -351 -429q-22 -23 -24 -103zM1212 334q21 99 21 127v3q-1 26 -30 86q-19 -96 -19 -125q0 -27 28 -91z" />
<glyph unicode="N" horiz-adv-x="1497" d="M115 488q43 241 82 519q3 22 -3.5 63.5t-5.5 59.5q2 53 24 95q80 145 199 157q10 1 19 2q108 0 204 -120q18 -23 35 -51.5t37 -65t31 -54.5q9 -15 29.5 -52t33 -58t37 -50t52.5 -51q67 100 72 109q12 19 88.5 148t117.5 196q16 26 66 74q26 25 57 25q12 0 24 -4 q46 -13 57 -61q22 -90 21 -178q0 -98 -26 -194q-63 -224 -135 -457q-37 -120 -114.5 -219.5t-192.5 -200.5q-30 -26 -92 -36q-11 -2 -22 -2q-22 0 -42 8q-30 12 -41 44q-36 102 -46 192q-4 41 -4 112.5t-1 113.5q-1 13 -5 28t-12 38.5t-13 40.5q-71 -53 -107.5 -116 t-51.5 -144q-32 -175 -51 -244q-15 -52 -60 -108q-39 -46 -92 -46q-9 0 -18 1q-65 9 -97 72q-66 129 -66 280q0 65 12 134zM230 403q-3 -23 -2 -44q0 -113 70 -196q46 49 64 106t26 132q5 54 21.5 103.5t48 100.5t54 82t66.5 86q15 19 37 36.5t53 39t48 34.5 q-17 33 -45.5 90t-51.5 100.5t-45 81.5q-29 49 -80 73q-31 14 -57 14q-17 0 -32 -6q-73 -29 -88 -141q-73 -559 -87 -692zM796 440q2 -36 5.5 -67.5t20.5 -67.5t46 -68q11 10 48.5 44t51 46t42.5 42t43 50t31.5 49t28.5 59q153 412 182 495q13 36 17 66q1 8 0 16q0 25 -8 57 q-10 42 -38 89q-136 -115 -207 -296q-41 -106 -86 -182t-113 -133q-63 -52 -64 -131q-1 -18 -1 -38q0 -15 1 -30z" />
<glyph unicode="O" d="M125 652q12 35 27 107.5t28 108.5q123 353 488 521q94 44 172 44q35 0 66 -9q29 -8 64.5 -12t53.5 -4q5 0 12 -1q20 -1 56 1q48 2 58 2h8q94 0 157 -44q65 -46 72 -123q5 -49 5 -103q0 -11 1 -23q0 -45 -2 -101q-2 -70 -2 -104h-13l1 -138q0 -46 1 -77q0 -61 -2 -61 q-3 -82 -34.5 -159t-92.5 -182q-68 -119 -192 -184.5t-302 -100.5q-50 -10 -103 -10q-62 0 -128 14q-120 26 -214.5 88.5t-134.5 144.5q-72 146 -72 273q0 69 22 132zM345 387q23 -117 143 -181q97 -51 217 -51q28 0 58 3q231 22 316 154q8 13 34.5 52t38.5 58.5t30 51.5 t27.5 60t12.5 55q8 66 11.5 146t3.5 138t-1.5 151t-1.5 141q0 34 -38 59q-33 22 -72 22h-10q-28 -2 -99.5 -12t-110.5 -11q-30 0 -63.5 2t-78 7t-64.5 7q-243 -169 -323 -382q-49 -131 -50 -279q1 -92 20 -191zM678 708q12 68 112 136q32 22 72 22q14 0 30 -2q58 -10 73 -52 q6 -15 36 -137q-3 -9 -9.5 -33t-13.5 -40t-18 -29q-19 -23 -48 -42t-56 -21t-62 12.5t-53 33.5q-65 72 -65 132q0 11 2 20z" />
<glyph unicode="&#xd6;" d="M125 652q12 35 27 107.5t28 108.5q123 353 488 521q94 44 172 44q35 0 66 -9q29 -8 64.5 -12t53.5 -4q5 0 12 -1q20 -1 56 1q48 2 58 2h8q94 0 157 -44q65 -46 72 -123q5 -49 5 -103q0 -11 1 -23q0 -45 -2 -101q-2 -70 -2 -104h-13l1 -138q0 -46 1 -77q0 -61 -2 -61 q-3 -82 -34.5 -159t-92.5 -182q-68 -119 -192 -184.5t-302 -100.5q-50 -10 -103 -10q-62 0 -128 14q-120 26 -214.5 88.5t-134.5 144.5q-72 146 -72 273q0 69 22 132zM345 387q23 -117 143 -181q97 -51 217 -51q28 0 58 3q231 22 316 154q8 13 34.5 52t38.5 58.5t30 51.5 t27.5 60t12.5 55q8 66 11.5 146t3.5 138t-1.5 151t-1.5 141q0 34 -38 59q-33 22 -72 22h-10q-28 -2 -99.5 -12t-110.5 -11q-30 0 -63.5 2t-78 7t-64.5 7q-243 -169 -323 -382q-49 -131 -50 -279q1 -92 20 -191zM678 708q12 68 112 136q32 22 72 22q14 0 30 -2q58 -10 73 -52 q6 -15 36 -137q-3 -9 -9.5 -33t-13.5 -40t-18 -29q-19 -23 -48 -42t-56 -21t-62 12.5t-53 33.5q-65 72 -65 132q0 11 2 20z" />
<glyph unicode="&#xd5;" d="M125 652q12 35 27 107.5t28 108.5q123 353 488 521q94 44 172 44q35 0 66 -9q29 -8 64.5 -12t53.5 -4q5 0 12 -1q20 -1 56 1q48 2 58 2h8q94 0 157 -44q65 -46 72 -123q5 -49 5 -103q0 -11 1 -23q0 -45 -2 -101q-2 -70 -2 -104h-13l1 -138q0 -46 1 -77q0 -61 -2 -61 q-3 -82 -34.5 -159t-92.5 -182q-68 -119 -192 -184.5t-302 -100.5q-50 -10 -103 -10q-62 0 -128 14q-120 26 -214.5 88.5t-134.5 144.5q-72 146 -72 273q0 69 22 132zM345 387q23 -117 143 -181q97 -51 217 -51q28 0 58 3q231 22 316 154q8 13 34.5 52t38.5 58.5t30 51.5 t27.5 60t12.5 55q8 66 11.5 146t3.5 138t-1.5 151t-1.5 141q0 34 -38 59q-33 22 -72 22h-10q-28 -2 -99.5 -12t-110.5 -11q-30 0 -63.5 2t-78 7t-64.5 7q-243 -169 -323 -382q-49 -131 -50 -279q1 -92 20 -191zM678 708q12 68 112 136q32 22 72 22q14 0 30 -2q58 -10 73 -52 q6 -15 36 -137q-3 -9 -9.5 -33t-13.5 -40t-18 -29q-19 -23 -48 -42t-56 -21t-62 12.5t-53 33.5q-65 72 -65 132q0 11 2 20z" />
<glyph unicode="&#xd4;" d="M125 652q12 35 27 107.5t28 108.5q123 353 488 521q94 44 172 44q35 0 66 -9q29 -8 64.5 -12t53.5 -4q5 0 12 -1q20 -1 56 1q48 2 58 2h8q94 0 157 -44q65 -46 72 -123q5 -49 5 -103q0 -11 1 -23q0 -45 -2 -101q-2 -70 -2 -104h-13l1 -138q0 -46 1 -77q0 -61 -2 -61 q-3 -82 -34.5 -159t-92.5 -182q-68 -119 -192 -184.5t-302 -100.5q-50 -10 -103 -10q-62 0 -128 14q-120 26 -214.5 88.5t-134.5 144.5q-72 146 -72 273q0 69 22 132zM345 387q23 -117 143 -181q97 -51 217 -51q28 0 58 3q231 22 316 154q8 13 34.5 52t38.5 58.5t30 51.5 t27.5 60t12.5 55q8 66 11.5 146t3.5 138t-1.5 151t-1.5 141q0 34 -38 59q-33 22 -72 22h-10q-28 -2 -99.5 -12t-110.5 -11q-30 0 -63.5 2t-78 7t-64.5 7q-243 -169 -323 -382q-49 -131 -50 -279q1 -92 20 -191zM678 708q12 68 112 136q32 22 72 22q14 0 30 -2q58 -10 73 -52 q6 -15 36 -137q-3 -9 -9.5 -33t-13.5 -40t-18 -29q-19 -23 -48 -42t-56 -21t-62 12.5t-53 33.5q-65 72 -65 132q0 11 2 20z" />
<glyph unicode="&#xd3;" d="M125 652q12 35 27 107.5t28 108.5q123 353 488 521q94 44 172 44q35 0 66 -9q29 -8 64.5 -12t53.5 -4q5 0 12 -1q20 -1 56 1q48 2 58 2h8q94 0 157 -44q65 -46 72 -123q5 -49 5 -103q0 -11 1 -23q0 -45 -2 -101q-2 -70 -2 -104h-13l1 -138q0 -46 1 -77q0 -61 -2 -61 q-3 -82 -34.5 -159t-92.5 -182q-68 -119 -192 -184.5t-302 -100.5q-50 -10 -103 -10q-62 0 -128 14q-120 26 -214.5 88.5t-134.5 144.5q-72 146 -72 273q0 69 22 132zM345 387q23 -117 143 -181q97 -51 217 -51q28 0 58 3q231 22 316 154q8 13 34.5 52t38.5 58.5t30 51.5 t27.5 60t12.5 55q8 66 11.5 146t3.5 138t-1.5 151t-1.5 141q0 34 -38 59q-33 22 -72 22h-10q-28 -2 -99.5 -12t-110.5 -11q-30 0 -63.5 2t-78 7t-64.5 7q-243 -169 -323 -382q-49 -131 -50 -279q1 -92 20 -191zM678 708q12 68 112 136q32 22 72 22q14 0 30 -2q58 -10 73 -52 q6 -15 36 -137q-3 -9 -9.5 -33t-13.5 -40t-18 -29q-19 -23 -48 -42t-56 -21t-62 12.5t-53 33.5q-65 72 -65 132q0 11 2 20z" />
<glyph unicode="&#xd2;" d="M125 652q12 35 27 107.5t28 108.5q123 353 488 521q94 44 172 44q35 0 66 -9q29 -8 64.5 -12t53.5 -4q5 0 12 -1q20 -1 56 1q48 2 58 2h8q94 0 157 -44q65 -46 72 -123q5 -49 5 -103q0 -11 1 -23q0 -45 -2 -101q-2 -70 -2 -104h-13l1 -138q0 -46 1 -77q0 -61 -2 -61 q-3 -82 -34.5 -159t-92.5 -182q-68 -119 -192 -184.5t-302 -100.5q-50 -10 -103 -10q-62 0 -128 14q-120 26 -214.5 88.5t-134.5 144.5q-72 146 -72 273q0 69 22 132zM345 387q23 -117 143 -181q97 -51 217 -51q28 0 58 3q231 22 316 154q8 13 34.5 52t38.5 58.5t30 51.5 t27.5 60t12.5 55q8 66 11.5 146t3.5 138t-1.5 151t-1.5 141q0 34 -38 59q-33 22 -72 22h-10q-28 -2 -99.5 -12t-110.5 -11q-30 0 -63.5 2t-78 7t-64.5 7q-243 -169 -323 -382q-49 -131 -50 -279q1 -92 20 -191zM678 708q12 68 112 136q32 22 72 22q14 0 30 -2q58 -10 73 -52 q6 -15 36 -137q-3 -9 -9.5 -33t-13.5 -40t-18 -29q-19 -23 -48 -42t-56 -21t-62 12.5t-53 33.5q-65 72 -65 132q0 11 2 20z" />
<glyph unicode="P" d="M102 361q112 287 129 332q8 21 24.5 62t26 67t21 62t18.5 66q25 111 110.5 204.5t222.5 187.5q133 92 330 92q100 0 215 -24q51 -10 104 -63q90 -91 90 -196q0 -51 -21 -105q-25 -62 -53 -111.5t-71.5 -100t-107 -90t-145.5 -66.5q-124 -40 -192 -104.5t-96 -155.5 q-48 -158 -77 -236q-32 -82 -108 -137q-63 -45 -119 -45q-12 0 -25 2q-173 30 -227 173q-9 24 -16 50.5t-17.5 70.5t-15.5 65zM255 352q-2 -15 -2 -30q0 -22 4 -44q7 -40 38 -78t85 -72q41 22 69.5 45.5t48 55t26.5 47t22 54.5q19 48 60.5 140t59.5 136q26 67 85 112t161 80 q156 54 228 146q61 78 61 176q0 19 -2 38q-17 141 -242 141q-173 0 -249 -83q-6 -7 -40 -43t-46 -50t-36 -42.5t-39 -51.5t-27 -46q-136 -266 -244 -553q-16 -42 -21 -78zM746 984q-2 24 21 42q21 16 54 16h8q11 0 22.5 -7t30 -22t31.5 -23q-12 -6 -31 -16t-29.5 -15.5 t-25 -12t-27.5 -10.5q-6 -2 -29.5 17t-24.5 31z" />
<glyph unicode="Q" d="M109 585q126 438 473 712q84 66 177 97q69 24 123 34q27 5 58 5q29 0 60 -5q66 -9 120 -47q81 -20 136.5 -54t84.5 -80t41 -95q11 -46 11 -103v-10q-2 -143 -30.5 -252t-113.5 -203q-84 -94 -84 -199q0 -47 17 -96q14 -42 14 -81q0 -85 -68 -155q-45 -47 -116 -53h-16 q-61 0 -108 35q-8 6 -16.5 14t-18.5 18.5t-16 15.5q-11 11 -33.5 33t-34.5 33q-5 0 -41 2.5t-44 3.5t-40 4t-42 5t-37 7t-39 10.5t-34 13.5t-35 17.5t-29 22t-29 27.5q-22 25 -72 27q-60 3 -97.5 28t-67.5 69q-59 84 -59 155q0 23 6 44zM270 574.5q0 -43.5 16.5 -85 t61 -74.5t115.5 -54q16 -6 23 -12q77 -72 185 -72q39 0 83 10q27 6 51 6q93 0 137 -92q4 -8 12 -15.5t22 -18.5t23 -19q44 39 44 78q0 36 -38 73q-6 6 -18 14.5t-19 14t-15.5 16t-7.5 21t5 28.5q313 231 313 558q0 22 -1 45q-4 55 -13.5 96t-31 83.5t-62 76.5t-100.5 59 q-152 -4 -193 -10t-94 -37q-68 -38 -118.5 -73.5t-98 -80t-78.5 -96.5t-43 -110q-23 -15 -41.5 -31.5t-33.5 -39.5t-23 -36t-19 -44.5t-13.5 -39.5t-13.5 -44q-16 -51 -16 -94.5zM356 646q15 51 44 147.5t34 112.5q13 10 40.5 30.5t48 37t37.5 32.5q112 108 322 108 q35 0 73 -3q100 -8 153 -79q60 -79 60 -181q0 -27 -4 -57q-21 -137 -126 -226q-30 -26 -68 -28h-6q-37 0 -96 19q-9 3 -27 6l-24 4q-19 -12 -23 -24t2 -21t17 -22t14 -21q8 -18 8 -33q0 -20 -13 -38q-21 -30 -72 -39q-34 -6 -67 -6q-69 0 -137 25q-102 37 -157 109 q-39 51 -39 104q0 22 6 43zM430 903v1q1 0 2.5 1t2.5 2l-1 -1q-2 -2 -4 -3zM491 628q0 -24 32 -72q17 -25 57.5 -27.5t55.5 20.5q7 12 19 37.5t21 38.5q52 73 141 73q19 0 41 -4h9q81 0 116 17q37 18 50 70q10 44 10 84q0 30 -5 58q-10 53 -72 81q-44 21 -94 21 q-20 0 -42 -4q-111 -18 -184 -85q-155 -142 -155 -308z" />
<glyph unicode="R" d="M103.5 199q-1.5 20 0 48t6.5 50q28 115 112 341q19 51 81 200.5t89 232.5q54 169 241 256q79 38 143 60q81 29 145 41q33 6 68 6q33 0 71 -6q76 -11 141 -54q127 -84 171 -190q21 -50 21 -100q0 -57 -26 -115q-27 -59 -107 -155q-18 -22 -41 -45t-51.5 -49.5t-43.5 -41.5 q2 -21 7.5 -74.5t7.5 -89t2 -69.5q-3 -219 -155 -378q-62 -67 -146 -67q-9 0 -18 1q-55 5 -98 38t-50 78q-9 53 -22 153.5t-15 112.5q-18 5 -34 5q-40 0 -67 -29q-4 -5 -12 -14l-4 -5q-15 -18 -77 -95t-100 -116q-5 -6 -12.5 -11.5t-13.5 -10t-15.5 -9.5t-15.5 -8.5t-18 -9 t-16.5 -7.5t-18.5 -8t-17 -7q-11 -5 -24 -5q-18 0 -40 9q-38 15 -40 35q-1 16 -4 49t-4.5 53zM300.5 416q-2.5 -27 4.5 -45q19 -4 35 -4q53 0 79 47q14 25 33.5 51t35.5 43.5t46.5 44.5t44 38t51.5 41t48 38q14 11 44 18.5t40 1.5q46 -27 69 -78q5 -10 5 -24q0 -21 -13 -50 q-19 -44 -24 -86q-1 -12 -1 -24q0 -32 8 -69q12 -51 23.5 -82.5t38.5 -96.5q61 55 90 115q30 60 30 122v7q0 58 -9 108q-9 53 -24 122.5t-17 115.5q19 12 64.5 39.5t76.5 48t57 42.5q79 66 91 149q2 15 2 29q0 67 -45 126q-47 63 -118 85q-34 11 -72 11q-41 0 -86 -13 q-170 -47 -258 -145q-94 -104 -155.5 -223t-124.5 -285q-6 -17 -17 -43t-18.5 -43t-17 -43.5t-12 -44t-5 -44.5zM833 955q4 49 29 68q16 13 48 13q15 0 34 -3q5 0 9 -7.5t9 -20.5t9 -20q-3 -3 -10 -13.5t-11 -16t-11.5 -13.5t-14.5 -14q-9 -7 -27.5 -9.5t-30.5 1.5 q-11 3 -22.5 14.5t-10.5 20.5z" />
<glyph unicode="S" d="M132 190q-30 50 -30 90q0 45 37 77q61 53 131 53q36 0 73 -14q118 -43 229 -43q44 0 87 7q81 13 124 29q84 29 84 88q0 5 -1 11q-5 36 -28.5 61.5t-64.5 33.5q-42 8 -123.5 15t-101.5 9q-170 20 -234 103q-32 41 -32 92t32 112q97 183 166 276q58 79 153.5 136t202.5 84 q93 24 192 24q15 0 30 -1q115 -4 211 -42q123 -49 123 -127v-10q-12 -140 -150 -183q-30 -10 -94 -20.5t-93 -19.5q-19 -6 -37 -22.5t-19 -31.5q-1 -13 14 -31.5t32 -25.5q22 -8 46 -14.5t59.5 -13.5t48.5 -10q72 -17 113 -55t42 -92v-27q0 -140 -38 -250 q-42 -122 -164 -217q-115 -90 -212.5 -144t-217.5 -75q-28 -5 -76.5 -12t-63.5 -10q-71 8 -114.5 14t-101 20t-95.5 32.5t-76 50t-63 73.5zM510 168h27q71 0 97 4q30 6 100 35q-82 -2 -111 -8q-21 -5 -40 -2.5t-40 -3.5t-33 -25zM510 794q33 -8 94.5 -24t107 -26.5 t87.5 -16.5q94 -13 153.5 -56t105.5 -117q7 -11 9 -32.5t4 -37t19.5 -30t52.5 -19.5q67 93 67 180q0 52 -24 103q-40 14 -118 40.5t-135 47.5t-106 43q-55 25 -77 69q-12 24 -12 49q0 21 8 41q18 46 68 77q27 17 85 43t80 38q17 9 55 13.5t65 17t36 45.5q-7 3 -25 11t-31 13 t-26 7q-80 15 -138 15q-45 0 -77 -9q-73 -20 -144 -108q-89 -111 -166 -248q-9 -16 -12 -35.5t-3.5 -48.5t-2.5 -45zM755 211q40 -3 48 -1q5 1 9.5 4.5t9.5 9.5t8 8l-29 -3q-5 -1 -46 -18z" />
<glyph unicode="T" d="M104 1201q29 156 171 179q173 29 236 32q2 0 662 21q29 2 53 -1q63 -6 107 -38t53 -78q6 -32 6 -60q0 -99 -79 -152q-56 -37 -192 -84q-30 -11 -70 -24t-59.5 -19t-46.5 -17.5t-39.5 -20.5t-29.5 -26.5t-24.5 -37t-17 -50.5t-14.5 -68.5t-10 -88.5q-5 -52 -19 -113 t-27 -102.5t-37.5 -114t-34.5 -104.5q-16 -51 -79 -137q-43 -59 -91 -83q-28 -14 -52 -15q-17 0 -32 8q-41 21 -54.5 56t-19.5 92q0 4 -0.5 6.5t-0.5 5.5q-1 7 -2 25t-3 30.5t-6 23.5q-18 46 -18 94q0 77 45 159q94 173 106 326q1 19 -0.5 40.5t-5 55t-5.5 57.5 q-25 2 -67 2.5t-67.5 3t-47.5 9.5q-94 30 -157 88q-19 17 -27 53q-5 23 -6 44q0 12 2 23zM321 1182q44 -14 131.5 -41.5t131.5 -41.5q25 -99 25 -207q0 -143 -44 -300q-10 -36 -34 -102t-33 -97q-4 -15 -5.5 -25t1 -22.5t15.5 -19t37 -7.5q116 214 124 419q9 210 81 339 q297 80 372 102q13 4 18 5.5t16 7.5t14 13.5t3 21t-7 30.5q-99 -4 -185 -4q-43 0 -83 1q-45 1 -94 1q-82 0 -175 -3q-150 -5 -270 -24q-5 -1 -10.5 -7t-14.5 -19t-14 -20z" />
<glyph unicode="U" horiz-adv-x="1497" d="M104 415q31 423 217 797q34 69 81.5 118t120.5 77q35 13 68 13q35 0 67 -14q64 -28 69 -94q1 -11 1 -22q0 -71 -23 -151q-9 -32 -37.5 -96.5t-37.5 -98.5q-15 -56 -15 -173q0 -10 13.5 -23.5t26.5 -16.5q14 -4 34.5 0.5t27.5 12.5q59 78 76 127q11 30 47 152.5t66 185.5 q41 85 164 184q48 39 112 41h9q59 0 107 -29q47 -28 83 -118q6 -16 8 -35.5t2 -58.5t2 -69q-6 -18 -22.5 -68.5t-35 -101t-38.5 -94.5q-36 -80 -113 -233t-111 -228q-111 -241 -351 -353q-90 -42 -189 -45h-17q-89 0 -165 28q-83 31 -146.5 94t-85.5 147q-16 64 -16 118 q0 14 1 27zM326 450q6 -56 19 -124q16 -76 96 -112q46 -21 97 -21q37 0 76 11q219 61 305 224q158 295 279 535q39 77 69 195q5 19 1 43t-17 39q-10 12 -42 20t-40 1q-78 -64 -99 -115q-51 -121 -91 -281q-26 -104 -91.5 -192t-168.5 -181q-35 -32 -93 -32h-18 q-70 6 -104 49q-17 22 -38.5 67.5t-32.5 63.5q-6 10 -16 19.5t-30.5 27t-34.5 30.5q-20 -69 -26 -140q-3 -36 -3 -67.5t3 -59.5zM436 1050q-1 -2 0.5 -5.5t6 -9.5t5.5 -8q46 26 67 38q-14 24 -30 52q-39 -50 -49 -67z" />
<glyph unicode="&#xdb;" horiz-adv-x="1497" d="M104 415q31 423 217 797q34 69 81.5 118t120.5 77q35 13 68 13q35 0 67 -14q64 -28 69 -94q1 -11 1 -22q0 -71 -23 -151q-9 -32 -37.5 -96.5t-37.5 -98.5q-15 -56 -15 -173q0 -10 13.5 -23.5t26.5 -16.5q14 -4 34.5 0.5t27.5 12.5q59 78 76 127q11 30 47 152.5t66 185.5 q41 85 164 184q48 39 112 41h9q59 0 107 -29q47 -28 83 -118q6 -16 8 -35.5t2 -58.5t2 -69q-6 -18 -22.5 -68.5t-35 -101t-38.5 -94.5q-36 -80 -113 -233t-111 -228q-111 -241 -351 -353q-90 -42 -189 -45h-17q-89 0 -165 28q-83 31 -146.5 94t-85.5 147q-16 64 -16 118 q0 14 1 27zM326 450q6 -56 19 -124q16 -76 96 -112q46 -21 97 -21q37 0 76 11q219 61 305 224q158 295 279 535q39 77 69 195q5 19 1 43t-17 39q-10 12 -42 20t-40 1q-78 -64 -99 -115q-51 -121 -91 -281q-26 -104 -91.5 -192t-168.5 -181q-35 -32 -93 -32h-18 q-70 6 -104 49q-17 22 -38.5 67.5t-32.5 63.5q-6 10 -16 19.5t-30.5 27t-34.5 30.5q-20 -69 -26 -140q-3 -36 -3 -67.5t3 -59.5zM436 1050q-1 -2 0.5 -5.5t6 -9.5t5.5 -8q46 26 67 38q-14 24 -30 52q-39 -50 -49 -67z" />
<glyph unicode="&#xda;" horiz-adv-x="1497" d="M104 415q31 423 217 797q34 69 81.5 118t120.5 77q35 13 68 13q35 0 67 -14q64 -28 69 -94q1 -11 1 -22q0 -71 -23 -151q-9 -32 -37.5 -96.5t-37.5 -98.5q-15 -56 -15 -173q0 -10 13.5 -23.5t26.5 -16.5q14 -4 34.5 0.5t27.5 12.5q59 78 76 127q11 30 47 152.5t66 185.5 q41 85 164 184q48 39 112 41h9q59 0 107 -29q47 -28 83 -118q6 -16 8 -35.5t2 -58.5t2 -69q-6 -18 -22.5 -68.5t-35 -101t-38.5 -94.5q-36 -80 -113 -233t-111 -228q-111 -241 -351 -353q-90 -42 -189 -45h-17q-89 0 -165 28q-83 31 -146.5 94t-85.5 147q-16 64 -16 118 q0 14 1 27zM326 450q6 -56 19 -124q16 -76 96 -112q46 -21 97 -21q37 0 76 11q219 61 305 224q158 295 279 535q39 77 69 195q5 19 1 43t-17 39q-10 12 -42 20t-40 1q-78 -64 -99 -115q-51 -121 -91 -281q-26 -104 -91.5 -192t-168.5 -181q-35 -32 -93 -32h-18 q-70 6 -104 49q-17 22 -38.5 67.5t-32.5 63.5q-6 10 -16 19.5t-30.5 27t-34.5 30.5q-20 -69 -26 -140q-3 -36 -3 -67.5t3 -59.5zM436 1050q-1 -2 0.5 -5.5t6 -9.5t5.5 -8q46 26 67 38q-14 24 -30 52q-39 -50 -49 -67z" />
<glyph unicode="&#xd9;" horiz-adv-x="1497" d="M104 415q31 423 217 797q34 69 81.5 118t120.5 77q35 13 68 13q35 0 67 -14q64 -28 69 -94q1 -11 1 -22q0 -71 -23 -151q-9 -32 -37.5 -96.5t-37.5 -98.5q-15 -56 -15 -173q0 -10 13.5 -23.5t26.5 -16.5q14 -4 34.5 0.5t27.5 12.5q59 78 76 127q11 30 47 152.5t66 185.5 q41 85 164 184q48 39 112 41h9q59 0 107 -29q47 -28 83 -118q6 -16 8 -35.5t2 -58.5t2 -69q-6 -18 -22.5 -68.5t-35 -101t-38.5 -94.5q-36 -80 -113 -233t-111 -228q-111 -241 -351 -353q-90 -42 -189 -45h-17q-89 0 -165 28q-83 31 -146.5 94t-85.5 147q-16 64 -16 118 q0 14 1 27zM326 450q6 -56 19 -124q16 -76 96 -112q46 -21 97 -21q37 0 76 11q219 61 305 224q158 295 279 535q39 77 69 195q5 19 1 43t-17 39q-10 12 -42 20t-40 1q-78 -64 -99 -115q-51 -121 -91 -281q-26 -104 -91.5 -192t-168.5 -181q-35 -32 -93 -32h-18 q-70 6 -104 49q-17 22 -38.5 67.5t-32.5 63.5q-6 10 -16 19.5t-30.5 27t-34.5 30.5q-20 -69 -26 -140q-3 -36 -3 -67.5t3 -59.5zM436 1050q-1 -2 0.5 -5.5t6 -9.5t5.5 -8q46 26 67 38q-14 24 -30 52q-39 -50 -49 -67z" />
<glyph unicode="V" horiz-adv-x="1064" d="M104 1117q-1 15 -1 34q0 51 8 123q9 73 74 95q26 9 50 9q50 0 84 -42q30 -37 61 -112q13 -33 118 -317q102 232 106 240q46 92 90 155.5t104 108.5q32 23 62 23q20 0 40 -10q50 -26 59 -94q4 -31 4 -62q0 -56 -14 -110q-22 -83 -69 -181q-42 -89 -124 -250t-107 -212 q-27 -55 -76.5 -161t-55.5 -119q-72 -153 -168 -220q-22 -16 -46 -16q-17 0 -35 8q-44 19 -52 66q-30 208 -50 390q-37 349 -62 654zM217 1133q53 -437 64 -515q6 -40 65 -329q67 65 122.5 151t88 157t76.5 161t82 148q22 34 39.5 75.5t37.5 102.5t28 84q1 3 -3 8 t-14.5 15.5t-17.5 18.5q-11 -22 -29 -59.5t-32.5 -67.5t-29.5 -55q-101 -174 -162 -259q-27 -37 -69 -37q-7 0 -17 2q-54 8 -75 60q-19 52 -47.5 153t-34.5 120q-12 41 -26 53q-16 14 -46 13z" />
<glyph unicode="W" d="M105 206q-3 61 -3 116q0 87 7 163q8 88 28.5 261t32 310.5t11.5 263.5q0 8 3 16t9 20.5t9 21.5q21 5 61.5 15.5t74.5 18.5t65 13q6 1 11 1q34 0 66 -37q36 -43 38 -100v-7q0 -26 -6 -68q-8 -48 -9 -62q-2 -23 -7 -137q76 92 81 100q7 11 42 65.5t56 80.5q6 8 22 28.5 t24.5 30.5t24 24t28 17.5t29.5 1.5t35 -14q21 -15 31.5 -41.5t12 -46t1 -61t-0.5 -54.5q1 -19 1 -88.5t3 -107.5q1 -15 5.5 -30.5t12 -37.5t9.5 -27q18 0 32 5.5t25 19t16.5 22t15.5 29.5t13 27q9 18 75.5 149.5t103.5 198.5q16 29 23.5 41t24 35t30 32t33.5 15.5t42 1.5 q37 -7 44 -77q1 -14 1 -30q0 -61 -22 -144q-14 -49 -50.5 -185t-56.5 -204.5t-58.5 -171.5t-81.5 -182q-103 -191 -188 -302q-51 -66 -108 -66q-14 0 -28 4q-73 20 -108 127q-14 42 -25 90t-22.5 111t-18.5 95q-7 5 -14 6t-13.5 -2.5t-10 -6t-10 -12t-8.5 -12.5t-9 -15 l-192 -336q-35 -58 -76 -97q-22 -22 -47 -22t-52 24q-84 74 -88 183zM198 410.5q2 -37.5 3 -49t5.5 -49t5.5 -48.5q4 -35 36 -48.5t49 11.5q21 31 43.5 67t49 79.5t41.5 68.5q165 266 203 323q16 24 38 24q9 -1 20 -5q35 -14 40 -60q8 -83 14 -251q5 -105 63 -171 q23 -25 45 -25q17 0 33 14q38 32 50 51q110 170 184.5 331.5t112.5 341.5q2 4 0.5 15t-3.5 17.5t-6 21t-7 26.5q-24 -42 -69.5 -124t-79 -140t-65.5 -109t-117 -116q-20 -16 -42 -6t-30 38q-24 86 -34 188q-3 31 -3 59q0 17 1 32q1 14 1 29q0 30 -4 66q-6 54 -25 100 q-8 -6 -25.5 -16.5t-28 -19t-18.5 -19.5q-18 -25 -47.5 -78t-44.5 -76q-47 -73 -105 -138q-15 -17 -34 -17q-13 0 -27 8q-36 18 -40 59q-4 37 -4 111q0 30 5 86q4 47 4 88v16q-1 46 -13 88q-14 3 -26 3q-51 0 -59 -58q-59 -428 -88 -691q-4 -10 -2 -47.5z" />
<glyph unicode="X" d="M103 101q3 25 10.5 47.5t18 52t14.5 48.5q8 40 29.5 79.5t41.5 63.5t57 63.5t53 58.5q17 21 61 52t70 62.5t26 75.5q0 37 -22 68.5t-56 64t-48 56.5q-127 219 -193 346q-9 18 -15 39.5t-12 50.5t-9 41q127 44 207 44q16 0 32 -2q86 -12 186 -98q14 -12 49.5 -41.5 t60.5 -52t46 -44.5t42 -49t46 -61.5t38 -51.5q18 -1 32.5 6t21 14.5t17.5 25.5t14 23q85 121 158 230q58 85 191 118q14 3 26 3q38 0 68 -31q29 -30 29 -67q0 -15 -5 -30q-16 -56 -66 -148q-18 -34 -90.5 -151.5t-98.5 -183.5q157 -324 166 -345q33 -73 33 -158 q0 -46 -10 -96q-9 -47 -42 -108q-24 -45 -70 -58q-14 -4 -29 -4q-30 0 -58 19q-78 56 -134 125q-22 27 -53 82.5t-45 75.5q-7 11 -17.5 21t-25 23t-21.5 19q-46 -32 -149.5 -105t-179.5 -125t-148 -98q-14 -9 -37 -27.5t-40.5 -31t-39 -23t-43 -10t-42.5 14.5 q-26 17 -37 39.5t-8 47.5zM288 214q90 44 96 48q29 19 119.5 74t148.5 97t108 92q46 46 93 46q59 0 119 -75q21 -26 67 -89t73 -96q14 -18 58 -13q5 1 11.5 15.5t5.5 23.5q-29 189 -135 291q-19 18 -37.5 41.5t-40 54t-34.5 46.5q9 20 23 50t20 44q8 16 22.5 48.5t21.5 48.5 q-141 -96 -163 -111q-30 -20 -56 -20q-44 0 -78 57q-9 16 -30 58.5t-35 64.5q-53 81 -112.5 124t-169.5 82q-12 -14 -12.5 -30.5t5 -27.5t16.5 -26q129 -184 218 -301q39 -51 39 -104q0 -45 -29 -91q-24 -39 -102 -126q-28 -31 -98.5 -104.5t-107.5 -114.5q-5 -6 -8 -15.5 t-7.5 -28.5t-8.5 -33zM1035 974q82 81 111.5 128t69.5 162q-4 0 -13 1t-15.5 1t-10.5 -3q-135 -85 -142 -289z" />
<glyph unicode="Y" horiz-adv-x="1067" d="M134 1366q22 38 60 54q23 11 48 11q15 0 31 -4q8 -2 41.5 -10t44.5 -11.5t39 -11.5t43 -15.5t36.5 -18.5t38.5 -25t32 -31q9 -10 23.5 -19t38 -21.5t39.5 -21.5q15 18 42 54t45.5 58.5t36.5 41.5q27 29 66 36q11 2 21 2q25 0 43 -13q59 -40 59 -96q0 -11 -2 -23 q-18 -85 -52 -171q-15 -36 -47.5 -102t-38.5 -79q-170 -362 -183 -669q-4 -92 -35 -160t-106 -111q-29 -18 -60.5 -5.5t-32.5 44.5q-2 81 -2 149q0 84 3 148q1 33 10.5 93.5t11.5 84.5q4 38 4 73q0 62 -12 114q-17 82 -80 149q-17 17 -32 51q-73 167 -170 270q-36 38 -36 86 q0 45 32 99zM239 1296q2 -9 3 -20t2.5 -17t4.5 -9q39 -40 76 -92t59 -91t58 -105.5t54 -97.5q66 -115 66 -235q0 -50 -11 -100q15 23 16 27q61 259 179 462q14 24 28.5 55.5t21.5 48.5t23.5 62t19.5 53q1 11 0 15t-6.5 20t-8.5 27q-10 -11 -24.5 -25.5t-23 -24t-13.5 -19.5 q-12 -24 -35.5 -79t-38.5 -83q-24 -46 -73 -93q-23 -22 -57.5 -12t-40.5 40q-11 54 -16 118q-9 95 -106 135q-21 8 -46.5 14.5t-59 13.5t-51.5 12zM531 431.5q2 -27.5 16 -55.5v136q-10 -28 -14 -40.5t-2 -40z" />
<glyph unicode="Z" d="M114 56q-11 23 -11 46q0 48 43 100q15 18 49.5 61.5t54 67t48.5 58.5t55.5 64.5t53.5 56.5q26 26 50.5 53t50.5 60.5t44 56t46.5 63.5t41 58.5t44 66t39.5 60t42.5 67t39.5 62.5q2 3 13 38q5 17 -7 39.5t-27 23.5q-9 1 -35 4t-37 4t-34.5 3t-37.5 1.5t-34 -1.5 t-37.5 -4.5t-35.5 -8.5q-74 -22 -196 -33q-6 -1 -12 -1q-39 0 -54 24q-8 12 -8 29q0 20 12 47q18 41 75 170q67 28 142 36q52 6 121 6q30 0 63 -2q69 -2 111 -2q24 0 39 1q66 3 124 2q78 0 142 -4q112 -8 221 -44q39 -59 38 -116q0 -53 -33 -105q-139 -210 -215 -299 q-40 -46 -89 -99.5t-83 -89t-94.5 -98.5t-86.5 -91q-3 -3 -12.5 -13t-13.5 -15t-10.5 -14t-10.5 -19t-6 -22q6 -2 18.5 -7t20.5 -7t14 -1q177 39 282 39h5h3q23 0 63 16q43 18 55 21q89 21 142 23h6q58 0 82 -59q10 -22 0 -53.5t-32 -54.5q-62 -65 -145 -77 q-113 -16 -243.5 -51.5t-222.5 -67t-235 -84.5q-108 -41 -253 -41q-16 0 -33 1q-40 1 -67 12t-43 43zM219 131q30 -1 77 -5t58 -4t47 4q212 45 459 110q5 1 33 8t39 10.5t33.5 12t41 19t37.5 25.5q-15 4 -30 7t-27 4.5t-28 1t-25 -1t-26 -2.5t-23.5 -3t-24.5 -4.5t-23 -4.5 q-42 -8 -120.5 -25t-111.5 -23q-38 -8 -65 -8q-59 0 -64 38q-2 20 4 39t11.5 27t24 28t20.5 23q9 11 20.5 21t27.5 22t23 18t31.5 25.5t40 33t29.5 27.5q258 271 365 393q67 76 170 236q7 10 9 25.5t2.5 36.5t2.5 33q-107 49 -208 49h-12q-123 -3 -560 -29q-10 -1 -28 -21 q-6 -6 -4 -19t11 -15q25 -7 34 -2q36 18 82 26q43 8 72 8q2 -1 4 -1q30 0 87.5 -4t77.5 -5q67 -3 91 -49q13 -24 13 -56q0 -30 -11 -66q-30 -94 -53 -127q-25 -36 -88.5 -136t-113 -166.5t-104.5 -121.5q-62 -62 -167 -204.5t-161 -207.5zM1176 373q1 -6 3.5 -18t3.5 -18 q52 14 77 23q7 2 4 18q-1 5 -4 10t-5 4q-59 -14 -79 -19z" />
<glyph unicode="a" horiz-adv-x="1208" d="M106 244q-4 38 -4 73q0 277 222 417q9 6 41.5 27t44.5 28.5t41 23.5t47.5 22.5t45.5 14t53 9.5q19 2 37 2q52 0 98 -13q62 -17 112 -56t88 -84t77 -108q13 -21 24 -44.5t25 -60t18 -47.5q30 -74 31 -145q1 -33 -7 -64q-20 -100 -106 -181q-47 -46 -97 -52q-8 -1 -15 -1 q-45 0 -101 29q-10 5 -87 55q-22 -9 -60 -25.5t-63 -26t-49 -14.5q-107 -23 -170 -23q-21 0 -37 3q-207 32 -207 217q0 8 -2 24zM239 266q7 -56 46.5 -94.5t95.5 -40.5q11 -1 21 -1q70 0 114 24q40 21 81.5 47t101.5 65.5t92 59.5q76 -123 78 -126q13 -17 42 -15t39 22 l7.5 15t8 16.5t6.5 16t6 17t4 15t1.5 15.5t-2.5 13q-5 13 -18 54.5t-19.5 58.5t-22.5 50t-32 50.5t-42 36.5t-58 30q-22 8 -53 45q-32 38 -74 48q-28 6 -61 6q-18 0 -37 -2q-59 -6 -120.5 -41t-111.5 -90q-48 -55 -76 -133q-20 -56 -21 -115q1 -23 4 -47zM477 435 q24 69 85 74q2 -3 9 -9t11.5 -11t4.5 -15q-1 -36 -27 -58q-22 -19 -48 -19q-8 0 -16 2q-7 1 -14 15t-5 21z" />
<glyph unicode="&#xe4;" horiz-adv-x="1208" d="M106 244q-4 38 -4 73q0 277 222 417q9 6 41.5 27t44.5 28.5t41 23.5t47.5 22.5t45.5 14t53 9.5q19 2 37 2q52 0 98 -13q62 -17 112 -56t88 -84t77 -108q13 -21 24 -44.5t25 -60t18 -47.5q30 -74 31 -145q1 -33 -7 -64q-20 -100 -106 -181q-47 -46 -97 -52q-8 -1 -15 -1 q-45 0 -101 29q-10 5 -87 55q-22 -9 -60 -25.5t-63 -26t-49 -14.5q-107 -23 -170 -23q-21 0 -37 3q-207 32 -207 217q0 8 -2 24zM239 266q7 -56 46.5 -94.5t95.5 -40.5q11 -1 21 -1q70 0 114 24q40 21 81.5 47t101.5 65.5t92 59.5q76 -123 78 -126q13 -17 42 -15t39 22 l7.5 15t8 16.5t6.5 16t6 17t4 15t1.5 15.5t-2.5 13q-5 13 -18 54.5t-19.5 58.5t-22.5 50t-32 50.5t-42 36.5t-58 30q-22 8 -53 45q-32 38 -74 48q-28 6 -61 6q-18 0 -37 -2q-59 -6 -120.5 -41t-111.5 -90q-48 -55 -76 -133q-20 -56 -21 -115q1 -23 4 -47zM477 435 q24 69 85 74q2 -3 9 -9t11.5 -11t4.5 -15q-1 -36 -27 -58q-22 -19 -48 -19q-8 0 -16 2q-7 1 -14 15t-5 21z" />
<glyph unicode="&#xe3;" horiz-adv-x="1208" d="M106 244q-4 38 -4 73q0 277 222 417q9 6 41.5 27t44.5 28.5t41 23.5t47.5 22.5t45.5 14t53 9.5q19 2 37 2q52 0 98 -13q62 -17 112 -56t88 -84t77 -108q13 -21 24 -44.5t25 -60t18 -47.5q30 -74 31 -145q1 -33 -7 -64q-20 -100 -106 -181q-47 -46 -97 -52q-8 -1 -15 -1 q-45 0 -101 29q-10 5 -87 55q-22 -9 -60 -25.5t-63 -26t-49 -14.5q-107 -23 -170 -23q-21 0 -37 3q-207 32 -207 217q0 8 -2 24zM239 266q7 -56 46.5 -94.5t95.5 -40.5q11 -1 21 -1q70 0 114 24q40 21 81.5 47t101.5 65.5t92 59.5q76 -123 78 -126q13 -17 42 -15t39 22 l7.5 15t8 16.5t6.5 16t6 17t4 15t1.5 15.5t-2.5 13q-5 13 -18 54.5t-19.5 58.5t-22.5 50t-32 50.5t-42 36.5t-58 30q-22 8 -53 45q-32 38 -74 48q-28 6 -61 6q-18 0 -37 -2q-59 -6 -120.5 -41t-111.5 -90q-48 -55 -76 -133q-20 -56 -21 -115q1 -23 4 -47zM477 435 q24 69 85 74q2 -3 9 -9t11.5 -11t4.5 -15q-1 -36 -27 -58q-22 -19 -48 -19q-8 0 -16 2q-7 1 -14 15t-5 21z" />
<glyph unicode="&#xe2;" horiz-adv-x="1208" d="M106 244q-4 38 -4 73q0 277 222 417q9 6 41.5 27t44.5 28.5t41 23.5t47.5 22.5t45.5 14t53 9.5q19 2 37 2q52 0 98 -13q62 -17 112 -56t88 -84t77 -108q13 -21 24 -44.5t25 -60t18 -47.5q30 -74 31 -145q1 -33 -7 -64q-20 -100 -106 -181q-47 -46 -97 -52q-8 -1 -15 -1 q-45 0 -101 29q-10 5 -87 55q-22 -9 -60 -25.5t-63 -26t-49 -14.5q-107 -23 -170 -23q-21 0 -37 3q-207 32 -207 217q0 8 -2 24zM239 266q7 -56 46.5 -94.5t95.5 -40.5q11 -1 21 -1q70 0 114 24q40 21 81.5 47t101.5 65.5t92 59.5q76 -123 78 -126q13 -17 42 -15t39 22 l7.5 15t8 16.5t6.5 16t6 17t4 15t1.5 15.5t-2.5 13q-5 13 -18 54.5t-19.5 58.5t-22.5 50t-32 50.5t-42 36.5t-58 30q-22 8 -53 45q-32 38 -74 48q-28 6 -61 6q-18 0 -37 -2q-59 -6 -120.5 -41t-111.5 -90q-48 -55 -76 -133q-20 -56 -21 -115q1 -23 4 -47zM477 435 q24 69 85 74q2 -3 9 -9t11.5 -11t4.5 -15q-1 -36 -27 -58q-22 -19 -48 -19q-8 0 -16 2q-7 1 -14 15t-5 21z" />
<glyph unicode="&#xe1;" horiz-adv-x="1208" d="M106 244q-4 38 -4 73q0 277 222 417q9 6 41.5 27t44.5 28.5t41 23.5t47.5 22.5t45.5 14t53 9.5q19 2 37 2q52 0 98 -13q62 -17 112 -56t88 -84t77 -108q13 -21 24 -44.5t25 -60t18 -47.5q30 -74 31 -145q1 -33 -7 -64q-20 -100 -106 -181q-47 -46 -97 -52q-8 -1 -15 -1 q-45 0 -101 29q-10 5 -87 55q-22 -9 -60 -25.5t-63 -26t-49 -14.5q-107 -23 -170 -23q-21 0 -37 3q-207 32 -207 217q0 8 -2 24zM239 266q7 -56 46.5 -94.5t95.5 -40.5q11 -1 21 -1q70 0 114 24q40 21 81.5 47t101.5 65.5t92 59.5q76 -123 78 -126q13 -17 42 -15t39 22 l7.5 15t8 16.5t6.5 16t6 17t4 15t1.5 15.5t-2.5 13q-5 13 -18 54.5t-19.5 58.5t-22.5 50t-32 50.5t-42 36.5t-58 30q-22 8 -53 45q-32 38 -74 48q-28 6 -61 6q-18 0 -37 -2q-59 -6 -120.5 -41t-111.5 -90q-48 -55 -76 -133q-20 -56 -21 -115q1 -23 4 -47zM477 435 q24 69 85 74q2 -3 9 -9t11.5 -11t4.5 -15q-1 -36 -27 -58q-22 -19 -48 -19q-8 0 -16 2q-7 1 -14 15t-5 21z" />
<glyph unicode="&#xe0;" horiz-adv-x="1208" d="M106 244q-4 38 -4 73q0 277 222 417q9 6 41.5 27t44.5 28.5t41 23.5t47.5 22.5t45.5 14t53 9.5q19 2 37 2q52 0 98 -13q62 -17 112 -56t88 -84t77 -108q13 -21 24 -44.5t25 -60t18 -47.5q30 -74 31 -145q1 -33 -7 -64q-20 -100 -106 -181q-47 -46 -97 -52q-8 -1 -15 -1 q-45 0 -101 29q-10 5 -87 55q-22 -9 -60 -25.5t-63 -26t-49 -14.5q-107 -23 -170 -23q-21 0 -37 3q-207 32 -207 217q0 8 -2 24zM239 266q7 -56 46.5 -94.5t95.5 -40.5q11 -1 21 -1q70 0 114 24q40 21 81.5 47t101.5 65.5t92 59.5q76 -123 78 -126q13 -17 42 -15t39 22 l7.5 15t8 16.5t6.5 16t6 17t4 15t1.5 15.5t-2.5 13q-5 13 -18 54.5t-19.5 58.5t-22.5 50t-32 50.5t-42 36.5t-58 30q-22 8 -53 45q-32 38 -74 48q-28 6 -61 6q-18 0 -37 -2q-59 -6 -120.5 -41t-111.5 -90q-48 -55 -76 -133q-20 -56 -21 -115q1 -23 4 -47zM477 435 q24 69 85 74q2 -3 9 -9t11.5 -11t4.5 -15q-1 -36 -27 -58q-22 -19 -48 -19q-8 0 -16 2q-7 1 -14 15t-5 21z" />
<glyph unicode="b" horiz-adv-x="1210" d="M131 716q15 54 60 134q2 3 20.5 37t22 40.5t19 36.5t20 40.5t16.5 37t16 42t11.5 39t10.5 44t5 42.5q7 83 92 125q58 28 124 28q32 0 65 -6q161 -31 161 -146q0 -12 -2 -24q-6 -49 -16.5 -103t-26.5 -131.5t-25 -122.5q27 -2 63.5 -3.5t61 -3t44.5 -4.5 q106 -15 159.5 -58.5t66.5 -126.5q7 -44 7 -87q0 -278 -300 -478q-105 -68 -228 -68q-34 0 -70 6q-164 24 -265 142q-140 165 -140 373q0 93 28 195zM271 614q4 -30 9 -75t9 -72t10 -51q34 -137 163 -218q69 -44 151 -46h7q78 0 137 43q197 151 197 328q0 13 -1 27 q-5 55 -53 83q-30 17 -65 17q-21 0 -44 -6q-24 -7 -78 -26.5t-84 -26.5q-20 -5 -38 -5q-45 0 -83 28q-45 33 -46 80q0 9 2 18q12 69 56 183q11 30 40 89t41 89q11 27 14.5 38.5t-1.5 33.5t-26 37q-17 13 -52.5 -7.5t-54.5 -54.5q-8 -15 -42 -71.5t-53 -93t-34 -73.5 q-17 -43 -32 -91t-29.5 -104.5t-19.5 -72.5zM643 405q15 47 42 83q18 23 43.5 30.5t49.5 -11.5q14 -12 15.5 -38.5t-7.5 -44.5q-14 -32 -46 -46q-21 -10 -44 -10q-11 0 -22 2q-4 4 -13 12t-14 13.5t-4 9.5z" />
<glyph unicode="c" horiz-adv-x="1210" d="M102 369q0 105 82 207q83 104 223 177t301 99q53 9 98 9q54 -1 97 -13q79 -22 140 -90q31 -33 31 -68q0 -13 -4 -26q-16 -49 -84 -76q-31 -13 -100 -35.5t-103 -37.5q-14 -6 -25 -16.5t-28 -30.5t-31 -34q79 -4 190 -10q112 -5 169 -44q48 -33 48 -85q0 -9 -1 -19 q-11 -72 -83.5 -138t-181.5 -104q-94 -33 -187 -34q-14 0 -29 1q-123 7 -216 30t-163 65t-106 110q-37 70 -37 163zM335 261q28 -52 81 -78.5t138 -34.5q35 -3 69 -4q116 0 221 40q13 5 23 16t20 27.5t15 22.5q-21 14 -46.5 20t-41 6.5t-45.5 -2.5t-39 -3h-12 q-157 0 -222 99q-30 47 -30 88q0 82 121 141q39 19 117.5 50t106.5 43q10 4 14 17t-1 20q-5 8 -53 22q-12 4 -33 0q-96 -17 -177.5 -54t-136 -86t-88.5 -107q-33 -57 -32 -117q0 -63 31 -126z" />
<glyph unicode="d" horiz-adv-x="1208" d="M109 382q23 102 115 171q47 35 56 43q121 114 268 114q35 0 72 -7q6 -1 42 8q39 54 81 194q43 140 106 310q10 28 54 94q30 44 89 52q10 2 20 2q33 0 59 -19q34 -24 35 -67v-21q0 -140 -12 -363q-2 -34 -23 -108q-116 -420 -159 -563q-21 -70 -81 -182q-17 -31 -57 -38 q-10 -2 -19 -2q-28 0 -49 16q-8 6 -16.5 14t-18.5 18.5t-16 15.5q-34 32 -56 54q-24 -10 -72 -31.5t-73 -31.5q-37 -16 -78 -16q-44 0 -90 18q-90 34 -136 109q-47 84 -47 161q0 28 6 55zM226 305q4 -54 45.5 -93.5t102.5 -43.5q8 0 16 -1q75 0 133 42q19 13 51 40.5 t46 37.5q25 19 49.5 11t34.5 -38q5 -17 14 -52.5t15 -52.5q2 -7 11 -14t15 -6q33 4 43 19q8 11 25 68q15 51 39.5 138.5t46 161t42.5 137.5q70 213 70 454v32q0 29 -19 65q-6 8 -17.5 7t-26 -14t-22.5 -32q-47 -107 -79 -203q-19 -56 -51.5 -162t-47.5 -151q-4 -12 -11 -25 t-18.5 -33t-19.5 -35q-59 28 -115 34q-16 2 -32 2q-38 0 -73 -10q-50 -14 -93 -38.5t-90 -63.5q-32 -25 -58 -68q-27 -52 -27 -99q0 -7 1 -14zM451 349q-4 22 9.5 41t34.5 24q16 3 30.5 -10.5t13.5 -30.5q-2 -42 -36 -54q-17 -6 -33 3.5t-19 26.5z" />
<glyph unicode="e" horiz-adv-x="1208" d="M103 454q-1 5 -1 10q0 29 20 62q128 212 473 315q70 19 136 19q24 0 48 -2q88 -10 156 -53t88 -105q7 -21 11 -45t6.5 -50.5t3.5 -35.5q-10 -39 -9 -70q0 -13 1 -25q6 -40 34 -83q36 -57 36 -111q0 -50 -30 -96q-64 -98 -230 -151q-101 -32 -215 -32q-136 0 -290 45 q-33 9 -77 53q-133 137 -161 355zM322 534q-30 -43 -31 -98q0 -59 35 -133q13 -29 40 -70q48 -70 148 -103q68 -22 142 -22q34 0 69 4q110 16 184 76q21 17 31.5 40.5t6.5 43.5q-9 40 -116 44h-25q-28 0 -68 -1q-60 -2 -81 -2q-66 0 -82 22q-9 12 -9 40q0 23 6 57 q221 49 230 52q52 14 83 49q22 25 22 57q1 15 -5 32q-16 52 -66 82q-40 23 -102 27q-10 1 -20 1q-51 0 -97 -17q-233 -93 -295 -181zM459 551q5 26 43 45q31 16 64 16q7 0 14 -1q32 -3 54 -23t20 -44q-4 -32 -34 -52q-28 -18 -63 -18h-7q-42 2 -69.5 25.5t-21.5 51.5z" />
<glyph unicode="&#xea;" horiz-adv-x="1208" d="M103 454q-1 5 -1 10q0 29 20 62q128 212 473 315q70 19 136 19q24 0 48 -2q88 -10 156 -53t88 -105q7 -21 11 -45t6.5 -50.5t3.5 -35.5q-10 -39 -9 -70q0 -13 1 -25q6 -40 34 -83q36 -57 36 -111q0 -50 -30 -96q-64 -98 -230 -151q-101 -32 -215 -32q-136 0 -290 45 q-33 9 -77 53q-133 137 -161 355zM322 534q-30 -43 -31 -98q0 -59 35 -133q13 -29 40 -70q48 -70 148 -103q68 -22 142 -22q34 0 69 4q110 16 184 76q21 17 31.5 40.5t6.5 43.5q-9 40 -116 44h-25q-28 0 -68 -1q-60 -2 -81 -2q-66 0 -82 22q-9 12 -9 40q0 23 6 57 q221 49 230 52q52 14 83 49q22 25 22 57q1 15 -5 32q-16 52 -66 82q-40 23 -102 27q-10 1 -20 1q-51 0 -97 -17q-233 -93 -295 -181zM459 551q5 26 43 45q31 16 64 16q7 0 14 -1q32 -3 54 -23t20 -44q-4 -32 -34 -52q-28 -18 -63 -18h-7q-42 2 -69.5 25.5t-21.5 51.5z" />
<glyph unicode="&#xe9;" horiz-adv-x="1208" d="M103 454q-1 5 -1 10q0 29 20 62q128 212 473 315q70 19 136 19q24 0 48 -2q88 -10 156 -53t88 -105q7 -21 11 -45t6.5 -50.5t3.5 -35.5q-10 -39 -9 -70q0 -13 1 -25q6 -40 34 -83q36 -57 36 -111q0 -50 -30 -96q-64 -98 -230 -151q-101 -32 -215 -32q-136 0 -290 45 q-33 9 -77 53q-133 137 -161 355zM322 534q-30 -43 -31 -98q0 -59 35 -133q13 -29 40 -70q48 -70 148 -103q68 -22 142 -22q34 0 69 4q110 16 184 76q21 17 31.5 40.5t6.5 43.5q-9 40 -116 44h-25q-28 0 -68 -1q-60 -2 -81 -2q-66 0 -82 22q-9 12 -9 40q0 23 6 57 q221 49 230 52q52 14 83 49q22 25 22 57q1 15 -5 32q-16 52 -66 82q-40 23 -102 27q-10 1 -20 1q-51 0 -97 -17q-233 -93 -295 -181zM459 551q5 26 43 45q31 16 64 16q7 0 14 -1q32 -3 54 -23t20 -44q-4 -32 -34 -52q-28 -18 -63 -18h-7q-42 2 -69.5 25.5t-21.5 51.5z" />
<glyph unicode="&#xe8;" horiz-adv-x="1208" d="M103 454q-1 5 -1 10q0 29 20 62q128 212 473 315q70 19 136 19q24 0 48 -2q88 -10 156 -53t88 -105q7 -21 11 -45t6.5 -50.5t3.5 -35.5q-10 -39 -9 -70q0 -13 1 -25q6 -40 34 -83q36 -57 36 -111q0 -50 -30 -96q-64 -98 -230 -151q-101 -32 -215 -32q-136 0 -290 45 q-33 9 -77 53q-133 137 -161 355zM322 534q-30 -43 -31 -98q0 -59 35 -133q13 -29 40 -70q48 -70 148 -103q68 -22 142 -22q34 0 69 4q110 16 184 76q21 17 31.5 40.5t6.5 43.5q-9 40 -116 44h-25q-28 0 -68 -1q-60 -2 -81 -2q-66 0 -82 22q-9 12 -9 40q0 23 6 57 q221 49 230 52q52 14 83 49q22 25 22 57q1 15 -5 32q-16 52 -66 82q-40 23 -102 27q-10 1 -20 1q-51 0 -97 -17q-233 -93 -295 -181zM459 551q5 26 43 45q31 16 64 16q7 0 14 -1q32 -3 54 -23t20 -44q-4 -32 -34 -52q-28 -18 -63 -18h-7q-42 2 -69.5 25.5t-21.5 51.5z" />
<glyph unicode="f" horiz-adv-x="1208" d="M104 647q8 60 74 84q8 3 213 66q26 43 26 93q0 55 -31 119q-17 36 -20 70v11q0 28 10 56q13 32 33 60.5t51 59.5q70 72 211 91q43 6 82 6q93 0 171 -31q182 -70 182 -195q0 -21 -5 -43q-2 -11 -11 -60t-17 -75q-13 -42 -63 -54q-16 -4 -35 -4q-36 0 -77 15q-9 3 -24 13 t-29 14.5t-32 1.5q-3 -2 -11.5 -7.5t-13.5 -9t-5 -7.5q-1 -13 -1 -25q0 -54 24 -95q31 -50 117 -79q108 -37 119 -121q1 -9 1 -18q0 -48 -33 -83q-39 -42 -118 -57q-84 -16 -121 -52t-47 -96q-20 -124 -132 -237q-25 -25 -69 -47q-23 -11 -52 -11q-16 0 -33 4q-50 9 -62 37 q-2 5 -13 30.5t-14 32t-11.5 30t-10.5 32.5t-7.5 30t-5 32.5t1 30.5t5 33t12 31t18.5 33q6 9 10 20t7 26t6 23q-24 12 -66 31.5t-75.5 36t-62.5 31.5q-68 36 -68 102q0 10 2 21zM306.5 620.5q-2.5 -17.5 4.5 -22.5q30 -24 80 -34q52 -10 83 -17t54 -17.5t30 -20.5t5 -27.5 t-13 -37t-33 -50.5q-5 -8 -17.5 -22.5t-18.5 -22.5q-30 -42 -30 -86q0 -58 55 -118q7 8 19.5 22t19.5 23.5t11 18.5q15 36 38.5 102.5t35.5 95.5q3 8 13 46.5t24.5 59t43.5 34.5q18 9 43.5 13.5t60.5 8t50 5.5q-4 23 -5 23q-67 22 -157 49q-9 25 -27 73.5t-31.5 86.5 t-23.5 73q-5 18 -5 36q0 48 37 97q51 66 142 92q20 6 44 10.5t66 11.5t75 13q-127 92 -142 101q-39 24 -87 24q-35 0 -76 -13q-148 -45 -148 -151q0 -25 9 -70q11 -48 13 -60q19 -161 19 -204q0 -47 -28 -68t-105 -35q-103 -18 -118 -23q-8 -2 -10.5 -19.5z" />
<glyph unicode="g" horiz-adv-x="1210" d="M111 -240q-8 20 -8 40q0 62 73 128q34 30 92 30h7q63 -2 95 -36q25 -27 69 -109q37 -71 90 -98q24 -13 57 -8t47 25q20 30 24 42q54 205 54 398q0 43 -27 63q-21 16 -58 16q-12 0 -26 -2q-33 -4 -65 -4q-128 0 -234 61q-69 40 -69 92q0 5 1 11q13 97 25 136q15 49 50 82 q191 185 446 185q81 0 168 -19q32 -7 90.5 -18t78.5 -15q10 -135 11 -156q0 -12 1.5 -41t2 -45t0 -39.5t-3.5 -42.5q-20 -144 -65 -378q-8 -42 -40 -119q-62 -151 -230 -371q-63 -83 -164 -106q-57 -13 -111 -13q-72 0 -136 23q-112 41 -178 145q-30 48 -67 143zM220 -185 q0 -166 200 -265q30 -14 76 -16h16q148 0 192 110q-46 -8 -54 -10q-63 -17 -110 -17q-26 0 -47 5q-59 15 -108 80q-9 12 -16 25.5t-15 32.5t-12 27q-2 3 -8 19t-12 24q-17 23 -42 23q-12 0 -25 -5q-12 -5 -23.5 -15t-11.5 -18zM356 445q6 -46 56 -77q58 -35 112 -35 q8 0 16 1q37 4 79 10t95 13.5t87 12.5q2 -6 9.5 -22.5t11.5 -30t4 -26.5q-1 -29 -26 -351q0 -5 -15 -163q44 34 75.5 75.5t50 90t28 86.5t19.5 94q6 33 17 157.5t32 190.5q8 24 8 46q0 48 -33 93q-50 66 -140 97q-52 18 -103 18q-36 0 -72 -9q-109 -27 -130 -37 q-95 -43 -143 -99q-40 -46 -40 -107q0 -13 2 -28zM594 482q-7 22 16.5 38t55.5 13q23 -2 34.5 -15t5.5 -26q-4 -9 -12.5 -17.5t-24 -21.5t-24.5 -22q-8 8 -21.5 19t-20.5 18t-9 14z" />
<glyph unicode="h" horiz-adv-x="1208" d="M103 160.5q-3 24.5 1 35.5q26 173 76 334q18 57 27 91.5t17 84.5q5 36 5 68q0 13 -1 26q-1 8 -1 17q0 80 51 204q12 31 30 68.5t30.5 60.5t38.5 70t34 63q17 31 47 58q24 21 63 21q17 0 37 -4q170 -33 201 -124q22 -63 22 -130q0 -61 -18 -126q-5 -17 -16 -54.5 t-18.5 -66t-12.5 -54.5q-2 -22 -1.5 -31.5t4 -33t4.5 -36.5q128 -22 162 -29q117 -21 172 -61q49 -35 49 -89q0 -7 -1 -14q-17 -158 -63 -367q-4 -17 -17 -38t-22 -31.5t-31 -35.5q-18 -21 -50 -31q-21 -7 -42 -6q-12 0 -25 2q-75 13 -107 46q-29 30 -39 93q-3 16 -13 170 q-28 -8 -67 -17.5t-59 -15.5t-32 -14q-36 -23 -73 -49t-87.5 -63.5t-69.5 -51.5q-76 -55 -88 -62q-18 -11 -53 -4q-36 5 -40 19q-3 11 -9.5 36t-9 36t-5.5 35.5zM261 287.5q0 -5.5 3.5 -8.5t9 -6.5t15.5 -5.5t24 -3q180 93 186 96q92 47 208 47q89 0 115 -39q30 -45 41 -93 q4 -16 5 -34t0.5 -40t0.5 -34q7 1 20 1h19q4 17 32.5 128.5t42.5 170.5q6 21 -5 48q-18 49 -96 65q-25 5 -49 6q-50 0 -97 -22q-34 -16 -97 -49t-94 -48q-8 -4 -26.5 -4.5t-26.5 3.5q-40 17 -47 36q-6 15 11 47q41 75 70 162t56 193t47 164q5 14 6 32t-0.5 30.5t-5 34.5 t-4.5 31q-1 6 -13.5 12t-24.5 8q-10 2 -26.5 -1.5t-20.5 -7.5q-94 -105 -141 -191q-38 -69 -38 -143q0 -17 2 -34q3 -20 3 -42q0 -27 -4 -58q-8 -55 -17 -88t-29 -99q-24 -79 -52 -239q0 -2 -1.5 -8t-1.5 -9v-8.5z" />
<glyph unicode="i" horiz-adv-x="540" d="M102 439q0 90 42 222q28 86 83 134q19 16 44 19t49.5 -3.5t58.5 -21.5q19 -110 18 -218q0 -243 -95 -470q-10 -24 -53 -85q-13 -19 -40.5 -16t-39.5 25q-2 5 -9.5 17.5t-11 19.5t-7.5 17.5t-5 19.5q-3 23 -10.5 81.5t-11.5 89.5q-4 30 -8 78t-4 91zM178 1258 q126 94 140 104q9 -7 29.5 -21t34.5 -25.5t23 -25.5q32 -47 32 -97q1 -11 -1 -21q-8 -62 -60 -103q-28 -22 -64 -42q-18 -10 -34 -10q-34 0 -64 39q-47 59 -47 131q0 34 11 71zM190 288q0 -14 5 -29t15.5 -39t15.5 -38q27 24 44 56.5t23.5 56t13.5 62.5q14 78 14 140 q0 64 -15 111q-4 11 -16.5 20.5t-24.5 11.5q-25 3 -48 -22q-24 -27 -25 -55q-4 -101 -4 -180q0 -53 2 -95zM301 1175q0 -2 2 -4t5.5 -4.5t4.5 -3.5l15 9l-20 20q-7 -14 -7 -17z" />
<glyph unicode="&#xee;" horiz-adv-x="540" d="M102 439q0 90 42 222q28 86 83 134q19 16 44 19t49.5 -3.5t58.5 -21.5q19 -110 18 -218q0 -243 -95 -470q-10 -24 -53 -85q-13 -19 -40.5 -16t-39.5 25q-2 5 -9.5 17.5t-11 19.5t-7.5 17.5t-5 19.5q-3 23 -10.5 81.5t-11.5 89.5q-4 30 -8 78t-4 91zM178 1258 q126 94 140 104q9 -7 29.5 -21t34.5 -25.5t23 -25.5q32 -47 32 -97q1 -11 -1 -21q-8 -62 -60 -103q-28 -22 -64 -42q-18 -10 -34 -10q-34 0 -64 39q-47 59 -47 131q0 34 11 71zM190 288q0 -14 5 -29t15.5 -39t15.5 -38q27 24 44 56.5t23.5 56t13.5 62.5q14 78 14 140 q0 64 -15 111q-4 11 -16.5 20.5t-24.5 11.5q-25 3 -48 -22q-24 -27 -25 -55q-4 -101 -4 -180q0 -53 2 -95zM301 1175q0 -2 2 -4t5.5 -4.5t4.5 -3.5l15 9l-20 20q-7 -14 -7 -17z" />
<glyph unicode="&#xed;" horiz-adv-x="540" d="M102 439q0 90 42 222q28 86 83 134q19 16 44 19t49.5 -3.5t58.5 -21.5q19 -110 18 -218q0 -243 -95 -470q-10 -24 -53 -85q-13 -19 -40.5 -16t-39.5 25q-2 5 -9.5 17.5t-11 19.5t-7.5 17.5t-5 19.5q-3 23 -10.5 81.5t-11.5 89.5q-4 30 -8 78t-4 91zM178 1258 q126 94 140 104q9 -7 29.5 -21t34.5 -25.5t23 -25.5q32 -47 32 -97q1 -11 -1 -21q-8 -62 -60 -103q-28 -22 -64 -42q-18 -10 -34 -10q-34 0 -64 39q-47 59 -47 131q0 34 11 71zM190 288q0 -14 5 -29t15.5 -39t15.5 -38q27 24 44 56.5t23.5 56t13.5 62.5q14 78 14 140 q0 64 -15 111q-4 11 -16.5 20.5t-24.5 11.5q-25 3 -48 -22q-24 -27 -25 -55q-4 -101 -4 -180q0 -53 2 -95zM301 1175q0 -2 2 -4t5.5 -4.5t4.5 -3.5l15 9l-20 20q-7 -14 -7 -17z" />
<glyph unicode="&#xec;" horiz-adv-x="540" d="M102 439q0 90 42 222q28 86 83 134q19 16 44 19t49.5 -3.5t58.5 -21.5q19 -110 18 -218q0 -243 -95 -470q-10 -24 -53 -85q-13 -19 -40.5 -16t-39.5 25q-2 5 -9.5 17.5t-11 19.5t-7.5 17.5t-5 19.5q-3 23 -10.5 81.5t-11.5 89.5q-4 30 -8 78t-4 91zM178 1258 q126 94 140 104q9 -7 29.5 -21t34.5 -25.5t23 -25.5q32 -47 32 -97q1 -11 -1 -21q-8 -62 -60 -103q-28 -22 -64 -42q-18 -10 -34 -10q-34 0 -64 39q-47 59 -47 131q0 34 11 71zM190 288q0 -14 5 -29t15.5 -39t15.5 -38q27 24 44 56.5t23.5 56t13.5 62.5q14 78 14 140 q0 64 -15 111q-4 11 -16.5 20.5t-24.5 11.5q-25 3 -48 -22q-24 -27 -25 -55q-4 -101 -4 -180q0 -53 2 -95zM301 1175q0 -2 2 -4t5.5 -4.5t4.5 -3.5l15 9l-20 20q-7 -14 -7 -17z" />
<glyph unicode="j" horiz-adv-x="874" d="M113 28q9 48 55 61q10 2 20 2q32 0 62 -24q61 -52 83 -145q15 -69 32 -111q9 -21 27.5 -34.5t41.5 -9.5q15 2 30.5 14t23.5 25q60 107 60 256v14q-44 382 -45 399q-6 66 -6 265q0 43 48 65q25 11 53.5 5t45.5 -25q127 -148 127 -338q0 -112 -24 -180q-39 -109 -81 -316 t-58 -268q-20 -77 -43 -126q-35 -75 -115 -99q-30 -9 -52 -9q-20 0 -35 7q-97 45 -130 85q-131 158 -131 365q0 59 11 122zM178 -82q2 -15 9.5 -47.5t9.5 -50.5q4 -32 16.5 -68.5t23 -57.5t34 -64.5t30.5 -56.5q25 -48 85 -51h6q55 0 90 43q33 40 33 86q0 16 -4 33 q-8 1 -19 2.5t-14 2t-11 -0.5q-27 -9 -50.5 -9t-42.5 9q-37 18 -73 66q-10 13 -17.5 28t-11.5 27t-8 30.5t-5.5 27.5t-4 31.5t-3.5 29.5q-5 27 -38 51q-8 6 -17.5 -2t-15 -25t-2.5 -34zM488 1113q-3 12 -3 23q0 34 28 49q57 31 128 54q29 9 58.5 -8.5t37.5 -45.5 q5 -18 5 -34q0 -40 -29 -74q-40 -47 -105 -47h-3q-45 1 -77 23.5t-40 59.5zM597 506q0 -57 5 -126.5t5 -107.5q0 -6 2.5 -12t8.5 -15.5t8 -14.5q40 62 53 120q8 35 8 82q0 29 -3 63q-4 44 -15.5 75t-42.5 53q-19 -9 -19 -10q-10 -50 -10 -107z" />
<glyph unicode="k" horiz-adv-x="1210" d="M102 105v37.5t1 43t3 36.5t7 42.5t13 36.5q74 168 429 940q3 6 9.5 22t12.5 27t14 20q45 52 155 52q107 0 150 -56q27 -37 39 -86q7 -28 7 -59q0 -98 -69 -225q-38 -69 -132 -236q198 37 199 37q18 2 35 2q49 1 85 -17q45 -21 45 -57v-7q-4 -27 -6 -38t-10.5 -32 t-22.5 -34q-134 -134 -134 -288q0 -10 1 -20q1 -24 -11.5 -54.5t-22.5 -46.5t-36 -54q-37 -55 -109 -61q-8 -1 -16 0q-63 0 -117 41q-11 8 -25.5 24.5t-21.5 22.5q-3 3 -63 50q-95 -95 -115 -112q-39 -34 -91 -48q-31 -9 -59 -8q-19 0 -37 4q-107 24 -107 101zM290 255 q3 -7 8 -14t16 -20.5t19 -23.5q66 62 74 71q14 15 45.5 54t50.5 59q6 7 24 12.5t29 3.5q64 -7 75 -23q22 -31 99 -166q8 1 26 2t26 2q0 14 1 44t0.5 53.5t-2.5 44.5q-1 13 -1 26q0 52 23 94q29 52 111 92q6 3 6.5 10.5t-2 19t-2.5 16.5q-42 -1 -74.5 -12t-66 -30t-51.5 -26 q-57 -21 -106 -26q-12 -1 -22 -1q-32 0 -44 12q-36 40 -36 71q0 6 1 12q3 14 11 31.5t14.5 28.5t19.5 32t18 29q21 34 170 272q42 68 42 128q0 25 -7 49q-1 4 -8 7t-19.5 8t-20.5 9q-5 -5 -15 -14t-16 -16t-9 -14q-5 -9 -45 -103t-70 -140q-74 -114 -158 -330t-128 -298 q-11 -21 -6 -36z" />
<glyph unicode="l" horiz-adv-x="540" d="M102 53q0 41 10 121q17 134 53 400q2 13 5 39t5 42t6 38t9 39q30 101 38 217q10 147 73 330q10 30 35 64q18 26 49.5 16t38.5 -44q12 -58 12 -108q0 -72 -25 -127q1 0 1 2t1 2q3 -33 3 -68q0 -132 -36 -293q-16 -76 -43.5 -221t-41.5 -211q-40 -190 -118 -279 q-8 -10 -25.5 -12t-29.5 3q-7 2 -13.5 19t-6.5 31zM186 195q1 4 3 11.5t3 11.5q-1 -1 -3 -3.5t-3 -4.5v-15zM197 229q41 23 53 86q4 22 28 160t40 210q9 40 22.5 126t29.5 150.5t41 118.5q-2 12 -2 42t-6.5 49.5t-26.5 30.5q-12 -5 -20.5 -14t-13.5 -22t-8 -23t-6.5 -27.5 t-5.5 -25.5q-96 -362 -125 -861z" />
<glyph unicode="m" horiz-adv-x="1208" d="M107 366q7 45 19.5 100t20.5 86.5t27 103t24 90.5q4 15 35 63q33 51 81 51q27 0 59 -16q13 -6 78 -55q23 8 75.5 28t83.5 31l64 -48t79 -59q33 8 87 23q62 22 102 22q34 0 53 -16q41 -34 82 -235q19 -93 28 -218q1 -14 1 -28q0 -121 -71 -227q-42 -62 -89 -62h-3 q-53 2 -70 83q-5 25 -46 277q-177 -147 -194 -161q-33 12 -52 41t-25.5 58t-24.5 60t-47 46q-8 -7 -29 -22t-37.5 -29t-29.5 -29q-17 -20 -47 -68t-49 -69q-13 -15 -30.5 -28t-42.5 -28.5t-37 -24.5q-80 97 -80 206q0 27 5 54zM210 398q2 -34 14 -69q32 10 56 27t41 43 t27 46.5t23 54.5q-5 12 -9.5 32t-8.5 34t-12 29.5t-23 25.5t-37 15q-7 -18 -23.5 -55t-25 -60t-16.5 -57q-6 -27 -7 -53q1 -6 1 -13zM517 642q3 -5 8 -17.5t9.5 -20.5t9.5 -9q12 -3 22 -3q36 0 45 42q-2 4 -6.5 15t-7.5 17.5t-4 6.5q-18 -6 -76 -31zM650 474q-1 -23 6 -36 q5 -10 24.5 -17t30.5 -2q18 8 49.5 31.5t47.5 31.5q22 11 43 11q18 0 36 -8q38 -17 50 -61q3 -10 34 -166q5 -1 16 -3.5t17 -3.5q2 7 7.5 20.5t8 24t1.5 19.5q-20 137 -50 287q-9 44 -50 59q-15 5 -29 5q-25 0 -49 -17q-115 -84 -183 -145q-9 -7 -10 -30z" />
<glyph unicode="n" horiz-adv-x="874" d="M108 73q-5 63 -5 123q-1 128 23 238q34 161 147 292q33 38 53.5 48.5t45.5 0.5t69 -48q8 -7 16.5 -14.5t20.5 -17.5t19 -16l84 30q35 10 64 10q102 0 118 -123q8 -63 8 -121q0 -129 -41 -234q-15 -38 -78 -116q-19 -23 -51.5 -21.5t-49.5 25.5q-9 13 -23.5 40.5 t-23.5 40.5q-7 10 -25.5 26.5t-20.5 18.5q-24 -25 -72.5 -77t-85 -90t-71.5 -72q-18 -17 -40 -17q-15 1 -33 9q-44 20 -48 65zM247 434q-2 -18 -2 -41q0 -62 16 -159q7 4 19.5 11t21 12.5t14.5 12.5q34 40 48 91q14 49 15 93q0 44 -11 106q-2 8 -11.5 17.5t-18.5 10.5 q-9 2 -21.5 -2.5t-16.5 -11.5q-45 -72 -53 -140zM545 472q6 -19 16 -39t24 -45.5t20 -37.5q8 2 23 5.5t23 5.5q2 108 2 145v17q0 8 -10.5 19t-18.5 11q-41 0 -60 -19q-10 -11 -16.5 -30.5t-2.5 -31.5z" />
<glyph unicode="o" horiz-adv-x="874" d="M106 304q-4 35 -4 68q0 109 46 201q32 67 73 117t83 80t94.5 49.5t99 28t105.5 12.5q4 0 9 1q44 0 76 -37q36 -40 51 -106q8 -36 13 -75t10 -94.5t7 -77.5q2 -26 3 -50q0 -37 -6 -69q-9 -54 -24.5 -90.5t-48 -75.5t-55.5 -60t-66 -56q-7 -6 -11 -9q-74 -61 -154 -61 q-92 0 -191 81q-92 75 -110 223zM245 472q-4 -24 -4 -48q0 -52 18 -102q26 -74 76 -115q41 -33 89 -35h9q43 0 83 24q44 27 78 72q35 44 52 110q12 45 12 91q0 22 -3 44q-3 91 -33 127q-24 29 -73 29q-12 0 -25 -2q-112 -15 -158 -28q-100 -30 -121 -167zM406 404 q5 9 12.5 16.5t18 17t14.5 13.5q3 -10 10 -31.5t10 -32.5q-44 -28 -49 -29q-1 0 -6 10t-8 21.5t-2 14.5z" />
<glyph unicode="&#xf6;" horiz-adv-x="874" d="M106 304q-4 35 -4 68q0 109 46 201q32 67 73 117t83 80t94.5 49.5t99 28t105.5 12.5q4 0 9 1q44 0 76 -37q36 -40 51 -106q8 -36 13 -75t10 -94.5t7 -77.5q2 -26 3 -50q0 -37 -6 -69q-9 -54 -24.5 -90.5t-48 -75.5t-55.5 -60t-66 -56q-7 -6 -11 -9q-74 -61 -154 -61 q-92 0 -191 81q-92 75 -110 223zM245 472q-4 -24 -4 -48q0 -52 18 -102q26 -74 76 -115q41 -33 89 -35h9q43 0 83 24q44 27 78 72q35 44 52 110q12 45 12 91q0 22 -3 44q-3 91 -33 127q-24 29 -73 29q-12 0 -25 -2q-112 -15 -158 -28q-100 -30 -121 -167zM406 404 q5 9 12.5 16.5t18 17t14.5 13.5q3 -10 10 -31.5t10 -32.5q-44 -28 -49 -29q-1 0 -6 10t-8 21.5t-2 14.5z" />
<glyph unicode="&#xf5;" horiz-adv-x="874" d="M106 304q-4 35 -4 68q0 109 46 201q32 67 73 117t83 80t94.5 49.5t99 28t105.5 12.5q4 0 9 1q44 0 76 -37q36 -40 51 -106q8 -36 13 -75t10 -94.5t7 -77.5q2 -26 3 -50q0 -37 -6 -69q-9 -54 -24.5 -90.5t-48 -75.5t-55.5 -60t-66 -56q-7 -6 -11 -9q-74 -61 -154 -61 q-92 0 -191 81q-92 75 -110 223zM245 472q-4 -24 -4 -48q0 -52 18 -102q26 -74 76 -115q41 -33 89 -35h9q43 0 83 24q44 27 78 72q35 44 52 110q12 45 12 91q0 22 -3 44q-3 91 -33 127q-24 29 -73 29q-12 0 -25 -2q-112 -15 -158 -28q-100 -30 -121 -167zM406 404 q5 9 12.5 16.5t18 17t14.5 13.5q3 -10 10 -31.5t10 -32.5q-44 -28 -49 -29q-1 0 -6 10t-8 21.5t-2 14.5z" />
<glyph unicode="&#xf4;" horiz-adv-x="874" d="M106 304q-4 35 -4 68q0 109 46 201q32 67 73 117t83 80t94.5 49.5t99 28t105.5 12.5q4 0 9 1q44 0 76 -37q36 -40 51 -106q8 -36 13 -75t10 -94.5t7 -77.5q2 -26 3 -50q0 -37 -6 -69q-9 -54 -24.5 -90.5t-48 -75.5t-55.5 -60t-66 -56q-7 -6 -11 -9q-74 -61 -154 -61 q-92 0 -191 81q-92 75 -110 223zM245 472q-4 -24 -4 -48q0 -52 18 -102q26 -74 76 -115q41 -33 89 -35h9q43 0 83 24q44 27 78 72q35 44 52 110q12 45 12 91q0 22 -3 44q-3 91 -33 127q-24 29 -73 29q-12 0 -25 -2q-112 -15 -158 -28q-100 -30 -121 -167zM406 404 q5 9 12.5 16.5t18 17t14.5 13.5q3 -10 10 -31.5t10 -32.5q-44 -28 -49 -29q-1 0 -6 10t-8 21.5t-2 14.5z" />
<glyph unicode="&#xf3;" horiz-adv-x="874" d="M106 304q-4 35 -4 68q0 109 46 201q32 67 73 117t83 80t94.5 49.5t99 28t105.5 12.5q4 0 9 1q44 0 76 -37q36 -40 51 -106q8 -36 13 -75t10 -94.5t7 -77.5q2 -26 3 -50q0 -37 -6 -69q-9 -54 -24.5 -90.5t-48 -75.5t-55.5 -60t-66 -56q-7 -6 -11 -9q-74 -61 -154 -61 q-92 0 -191 81q-92 75 -110 223zM245 472q-4 -24 -4 -48q0 -52 18 -102q26 -74 76 -115q41 -33 89 -35h9q43 0 83 24q44 27 78 72q35 44 52 110q12 45 12 91q0 22 -3 44q-3 91 -33 127q-24 29 -73 29q-12 0 -25 -2q-112 -15 -158 -28q-100 -30 -121 -167zM406 404 q5 9 12.5 16.5t18 17t14.5 13.5q3 -10 10 -31.5t10 -32.5q-44 -28 -49 -29q-1 0 -6 10t-8 21.5t-2 14.5z" />
<glyph unicode="&#xf2;" horiz-adv-x="874" d="M106 304q-4 35 -4 68q0 109 46 201q32 67 73 117t83 80t94.5 49.5t99 28t105.5 12.5q4 0 9 1q44 0 76 -37q36 -40 51 -106q8 -36 13 -75t10 -94.5t7 -77.5q2 -26 3 -50q0 -37 -6 -69q-9 -54 -24.5 -90.5t-48 -75.5t-55.5 -60t-66 -56q-7 -6 -11 -9q-74 -61 -154 -61 q-92 0 -191 81q-92 75 -110 223zM245 472q-4 -24 -4 -48q0 -52 18 -102q26 -74 76 -115q41 -33 89 -35h9q43 0 83 24q44 27 78 72q35 44 52 110q12 45 12 91q0 22 -3 44q-3 91 -33 127q-24 29 -73 29q-12 0 -25 -2q-112 -15 -158 -28q-100 -30 -121 -167zM406 404 q5 9 12.5 16.5t18 17t14.5 13.5q3 -10 10 -31.5t10 -32.5q-44 -28 -49 -29q-1 0 -6 10t-8 21.5t-2 14.5z" />
<glyph unicode="p" horiz-adv-x="1095" d="M102 -432q3 12 8 40t11 55t12 51q99 396 133 514q47 164 138 411q43 118 151 140q29 6 79 35t70 37q80 31 138 31h3q62 0 104.5 -45t42.5 -109q0 -204 -184 -353q-41 -34 -84 -47q-85 -26 -128.5 -88t-74.5 -162q-8 -27 -14 -80.5t-8 -62.5q-40 -231 -213 -425 q-24 -26 -78 -55q-24 -13 -57.5 3t-38.5 43q-2 10 -10 67zM273 -225.5q1 -28.5 12 -54.5q6 4 20.5 11.5t22.5 13.5t11 14q47 113 50 158t11 89.5t23.5 93.5t27 81.5t33.5 90t31 82.5q14 39 76 120q39 52 118 52h6h4q87 0 125 46q29 35 29 92q0 21 -4 44q-3 21 -28.5 38 t-43.5 8q-12 -6 -72.5 -43.5t-95.5 -44.5q-87 -18 -126 -71.5t-62 -147.5q-25 -104 -76.5 -296.5t-63.5 -238.5q-2 -8 -13 -43t-13.5 -50.5t-1.5 -44z" />
<glyph unicode="q" horiz-adv-x="1042" d="M112 400q-10 36 -10 75t10 79q21 81 82.5 147.5t149.5 89.5q36 9 159 45q112 -57 131 -65q143 -60 143 -230q0 -85 -22 -190q-47 -218 -58 -266q16 -13 30.5 -19t28.5 -5t22.5 3t24 9t20.5 9q27 14 58.5 14t46.5 -31q9 -19 9.5 -45.5t-8.5 -45.5q-93 -170 -154 -243 q-123 -147 -341 -262q-4 -2 -22 -9q-31 -11 -57 -11q-35 0 -63 19q-38 28 -38 79q0 13 2 27q35 211 86 374q3 10 15 48t16.5 52.5t13 47t12.5 52t7.5 46.5t4.5 51q-25 30 -61 37q-19 3 -36 3q-15 0 -28 -3q-29 -5 -62 5q-88 27 -112 113zM223.5 477q1.5 -36 26.5 -53 q54 -36 83 -36h2q25 0 50.5 4t64.5 11t54 10q17 -26 25 -49.5t6 -50t-5 -39t-11 -42.5q-137 -493 -147 -532q-6 -21 -6 -47q0 -21 4 -44q2 -12 18 -15t40 5t46 26t89 65t107.5 86t67.5 89q2 4 -1 10t-9 17t-9 18q-17 -13 -48 -36t-58.5 -43.5t-54.5 -40.5q-7 11 -21.5 31.5 t-20.5 32.5t-6 23q5 84 32 163q12 34 104 269q30 77 30 147q0 45 -13 88q-8 26 -29 51t-44 35q-57 22 -106 22q-68 0 -122 -41q-20 -16 -60.5 -42.5t-57.5 -39.5q-22 -16 -20.5 -52zM481 550q-1 2 4.5 9.5t7.5 6.5q9 -3 35 -16l-24 -30q-21 26 -23 30z" />
<glyph unicode="r" horiz-adv-x="874" d="M104 172q12 88 25 128q33 106 143 449q26 82 90 101q34 10 56 10t31 -10q22 -22 50.5 -35t50 -16t56.5 -6t53 -6q16 -3 84 -29q27 -66 27 -151q0 -62 -14 -134q-28 -141 -188 -222q-20 -10 -53 7q-17 8 -72 44q-21 -13 -36.5 -33.5t-21.5 -33.5t-16.5 -44t-13.5 -38 q-36 -98 -110 -142q-25 -15 -53 -9t-47 31q-43 58 -43 116q0 12 2 23zM275 357q29 21 41 29.5t28.5 26.5t21.5 23.5t11.5 28t6 33t-2.5 45t-5 57t-11 76.5q-24 -40 -38 -84.5t-29 -122.5t-23 -112zM477 535q18 -15 33.5 -47.5t34 -58.5t48.5 -36q8 9 26 25t30.5 30t17.5 30 q11 32 11 102q0 20 -1 44q-1 22 -16 33.5t-36 12.5h-6q-47 0 -81 -30q-36 -32 -61 -105z" />
<glyph unicode="s" horiz-adv-x="874" d="M105 256q13 87 89 106q28 7 57 7q25 0 51 -5q19 -3 54.5 -17.5t52.5 -18.5q17 -3 49 18q11 8 2.5 36t-26.5 38q-5 3 -17.5 8t-17.5 9q-113 67 -137 147q-7 25 -7 56q0 69 37 167q72 196 212 195q41 0 88 -16q19 -7 161 -73q-9 -77 -9 -142q0 -90 17 -157q11 -42 10 -85 q0 -126 -92 -258q-108 -153 -267 -245q-45 -26 -86 -26q-46 0 -90 32q-48 34 -92 77q-42 41 -42 108q0 19 3 39zM257 209q-2 -19 15 -38q15 -17 33 -15q8 1 17.5 7.5t10.5 12.5q3 18 -15 38q-4 4 -9 6.5t-13 5t-11 4.5q-3 -2 -11 -6.5t-12.5 -7.5t-4.5 -7zM361 692 q-8 -26 1.5 -57t28.5 -43q14 -8 42.5 -22t49.5 -27t37 -30t29.5 -41t28.5 -57t23 -48q19 1 32 13.5t18.5 24.5t13.5 35q16 49 16 81q-1 17 -5 29q-14 36 -75 59q-83 31 -119 52q-19 12 -28 55q-4 24 5 44.5t27 30.5q3 2 144 62q-48 12 -74 17.5t-52 6t-38 -3.5t-26.5 -18.5 t-23 -31t-23.5 -48.5q-21 -47 -32 -83z" />
<glyph unicode="t" horiz-adv-x="1210" d="M119 578q32 50 91 75q49 21 109 21q12 0 25 -1q19 -1 40 -4.5t49 -8.5t47 -8q8 12 24 31t27 33.5t17 28.5q33 75 96 224.5t96 223.5q3 7 10.5 15t14 13.5t18 14t16.5 12.5q3 2 11.5 3t12.5 -1q37 -13 38 -18q8 -27 -2 -51q-25 -54 -237 -493q-10 -22 -17 -32 q-39 -59 -89 -75q-32 -10 -90 -10q-32 0 -73 3q-8 1 -26.5 3.5t-26 2.5t-22.5 -2q-11 -4 -19 -17.5t-4 -23.5q6 -17 22 -27.5t51.5 -22t42.5 -14.5q65 -27 83 -55q9 -14 9 -31q0 -19 -9 -43q-10 -25 -33.5 -70t-30.5 -61q-5 -11 -13.5 -37t-13.5 -40q43 19 64 44.5t33 55 t27 44.5q25 25 67 76t49 59q200 0 217 1q31 2 92 28q10 4 10 31q0 3 -6 7t-11 5q-28 5 -51 4h-1h-1h-1h-2q-41 -2 -69 -2q-45 0 -56 5q-19 9 -6 48q5 13 21 49v1l1 2q6 14 16.5 48.5t19.5 52.5q92 185 130 243q25 39 40 70.5t25 67.5q7 26 7 53q0 11 -1 21q-4 36 -23 72 q-12 26 -7 33q15 21 47 34q7 3 23.5 -0.5t22.5 -8.5q40 -36 48 -60q18 -54 18 -105q0 -96 -65 -181q-108 -142 -137 -259q-1 -4 -1 -56q15 -7 45.5 -21t54 -25.5t42.5 -23.5q48 -30 48 -77q0 -49 -53 -77q-83 -43 -202 -77q-25 -7 -53.5 -12t-69 -10t-59.5 -8 q-172 -205 -176 -210q-21 -25 -62 -55q-24 -18 -68 -22q-12 -1 -23 -1q-30 0 -55 8q-39 12 -60.5 34.5t-16.5 47.5q10 48 29 84q22 43 97 178q-6 22 -28.5 34t-57.5 21t-50 18q-83 45 -83 101q0 25 17 52z" />
<glyph unicode="u" horiz-adv-x="874" d="M106 503q6 81 39 155.5t92 138.5q58 64 101 64q2 -1 3 -1q44 -2 107 -77q5 -6 18.5 -22.5t22.5 -28.5q18 12 46 32t49 34.5t41 25.5q24 13 45 13q24 0 46 -15q42 -28 49 -92q6 -48 5 -82q0 -24 -2 -40q-64 -378 -315 -557q-71 -52 -135 -52q-30 0 -60 12q-90 36 -122 171 q-20 90 -28 165q-4 40 -5 82q0 36 3 74zM222 446q2 -24 6 -70.5t7 -74t8 -52.5q13 -65 67 -93q23 -12 44 -11q29 0 54 22q70 62 115.5 111t90 125.5t61.5 161.5q6 29 5.5 52t-8.5 37.5t-23 13.5q-48 -4 -73 -33q-13 -15 -24.5 -33.5t-27 -47t-20.5 -37.5q-38 -67 -46 -80 q-14 -21 -49 -13t-39 33q-4 32 -10.5 97t-10.5 97q-2 9 -11 20.5t-15 10.5q-47 -8 -52 -26q-13 -45 -49 -210z" />
<glyph unicode="&#xfb;" horiz-adv-x="874" d="M106 503q6 81 39 155.5t92 138.5q58 64 101 64q2 -1 3 -1q44 -2 107 -77q5 -6 18.5 -22.5t22.5 -28.5q18 12 46 32t49 34.5t41 25.5q24 13 45 13q24 0 46 -15q42 -28 49 -92q6 -48 5 -82q0 -24 -2 -40q-64 -378 -315 -557q-71 -52 -135 -52q-30 0 -60 12q-90 36 -122 171 q-20 90 -28 165q-4 40 -5 82q0 36 3 74zM222 446q2 -24 6 -70.5t7 -74t8 -52.5q13 -65 67 -93q23 -12 44 -11q29 0 54 22q70 62 115.5 111t90 125.5t61.5 161.5q6 29 5.5 52t-8.5 37.5t-23 13.5q-48 -4 -73 -33q-13 -15 -24.5 -33.5t-27 -47t-20.5 -37.5q-38 -67 -46 -80 q-14 -21 -49 -13t-39 33q-4 32 -10.5 97t-10.5 97q-2 9 -11 20.5t-15 10.5q-47 -8 -52 -26q-13 -45 -49 -210z" />
<glyph unicode="&#xfa;" horiz-adv-x="874" d="M106 503q6 81 39 155.5t92 138.5q58 64 101 64q2 -1 3 -1q44 -2 107 -77q5 -6 18.5 -22.5t22.5 -28.5q18 12 46 32t49 34.5t41 25.5q24 13 45 13q24 0 46 -15q42 -28 49 -92q6 -48 5 -82q0 -24 -2 -40q-64 -378 -315 -557q-71 -52 -135 -52q-30 0 -60 12q-90 36 -122 171 q-20 90 -28 165q-4 40 -5 82q0 36 3 74zM222 446q2 -24 6 -70.5t7 -74t8 -52.5q13 -65 67 -93q23 -12 44 -11q29 0 54 22q70 62 115.5 111t90 125.5t61.5 161.5q6 29 5.5 52t-8.5 37.5t-23 13.5q-48 -4 -73 -33q-13 -15 -24.5 -33.5t-27 -47t-20.5 -37.5q-38 -67 -46 -80 q-14 -21 -49 -13t-39 33q-4 32 -10.5 97t-10.5 97q-2 9 -11 20.5t-15 10.5q-47 -8 -52 -26q-13 -45 -49 -210z" />
<glyph unicode="&#xf9;" horiz-adv-x="874" d="M106 503q6 81 39 155.5t92 138.5q58 64 101 64q2 -1 3 -1q44 -2 107 -77q5 -6 18.5 -22.5t22.5 -28.5q18 12 46 32t49 34.5t41 25.5q24 13 45 13q24 0 46 -15q42 -28 49 -92q6 -48 5 -82q0 -24 -2 -40q-64 -378 -315 -557q-71 -52 -135 -52q-30 0 -60 12q-90 36 -122 171 q-20 90 -28 165q-4 40 -5 82q0 36 3 74zM222 446q2 -24 6 -70.5t7 -74t8 -52.5q13 -65 67 -93q23 -12 44 -11q29 0 54 22q70 62 115.5 111t90 125.5t61.5 161.5q6 29 5.5 52t-8.5 37.5t-23 13.5q-48 -4 -73 -33q-13 -15 -24.5 -33.5t-27 -47t-20.5 -37.5q-38 -67 -46 -80 q-14 -21 -49 -13t-39 33q-4 32 -10.5 97t-10.5 97q-2 9 -11 20.5t-15 10.5q-47 -8 -52 -26q-13 -45 -49 -210z" />
<glyph unicode="v" horiz-adv-x="874" d="M104 687q-1 16 -1 30q0 25 4 44q13 63 79 89q27 11 52 10q36 0 66 -22q25 -19 51 -44t60.5 -61.5t54.5 -55.5q200 171 203 173q23 18 57.5 1.5t37.5 -46.5q3 -37 3 -75q-3 -197 -109 -354q-88 -130 -287 -341q-35 -36 -77 -36q-16 -1 -34 5q-63 20 -85 89q-20 62 -30 146 q-16 144 -45 448zM248 612q3 -20 21 -157.5t29 -209.5q1 -5 6.5 -10.5t15 -12.5t13.5 -11q75 35 97 54t79 96q62 84 74.5 113t25.5 119q-5 -2 -14 -6t-16 -7.5t-12 -7.5q-28 -26 -40 -37.5t-32.5 -27t-27 -21t-23 -9.5t-21 -3.5t-20 8.5t-20.5 15t-23 28t-27.5 34.5 t-33.5 46.5q-2 3 -8.5 4t-19.5 1t-23 1z" />
<glyph unicode="w" horiz-adv-x="1210" d="M104 209q4 25 10 51.5t16 63.5t14 51q6 23 29 106.5t33 129.5q22 101 97 188q54 62 94 62l1 -1q41 0 100 -63q30 -32 50 -54q68 35 75 38q32 13 53 13q12 0 21 -4q25 -11 44 -61q4 -11 9 -35.5t9 -35.5q5 -12 37 -67q17 20 54 62.5t63.5 72.5t52.5 56q20 20 45 20 q11 0 24 -4q40 -13 54 -55q17 -48 17 -102q0 -44 -11 -92q-60 -249 -222 -443q-23 -28 -68 -58q-24 -15 -43.5 -25t-42.5 -17t-47 -5.5t-47 11.5q-22 10 -37.5 25.5t-25.5 40t-14.5 42t-11.5 49.5q-1 5 -4 11t-6.5 11.5t-11 16.5t-13.5 22q-119 -104 -146 -125 q-54 -41 -93 -55q-23 -8 -44 -8q-42 0 -76 34q-41 41 -40 102q0 15 2 31zM223 250q1 -16 9 -34.5t19 -25.5q10 -8 28.5 -7t28.5 9q30 29 83 86t73 78q13 14 29 28t35.5 31t28.5 25q33 -24 48.5 -57t25 -79t16.5 -65q6 -16 14 -32.5t19 -37.5t16 -32q52 19 93 51t74.5 79 t54 83.5t49.5 97.5q3 7 14.5 27t15.5 31t8 30t-1.5 38t-19.5 40q-8 -10 -33.5 -39t-39.5 -45q-13 -15 -36 -45t-42.5 -53t-39.5 -40q-29 -25 -59 -25q-16 0 -30 6q-44 19 -59 82q-5 22 -11.5 66.5t-8.5 58.5q-19 -8 -54 -27.5t-60 -30t-48 -10.5q-27 0 -39.5 22t-14 49.5 t-12.5 54.5t-34 35q-63 -94 -103 -213q-38 -113 -37 -201v-9z" />
<glyph unicode="x" horiz-adv-x="1208" d="M106 169q-11 27 9 52q4 5 21 26t22.5 27.5t22 24.5t25 25.5t25 22t30 23t31.5 18t37 16.5q18 7 34.5 17t41.5 28t39 27q-134 192 -166 240q-14 21 -14 40q0 38 57 67q77 37 130 37h8q55 -3 132 -50q23 -14 60 -48t74.5 -57t86.5 -32q9 5 29.5 16.5t39 20.5t36.5 15 q32 9 61 9q16 0 31 -2q43 -8 71 -38q26 -28 26 -64v-5q-3 -60 -43 -118q-18 -26 -39.5 -52.5t-53 -63t-44.5 -51.5q3 -13 11.5 -50.5t13.5 -62.5t8 -49q1 -14 1 -27q0 -42 -14 -79q-25 -63 -121 -71q-11 -1 -21 -1q-66 0 -98 41q-22 27 -61.5 78.5t-40.5 53.5q-21 7 -38.5 9 t-34 -3.5t-26.5 -10t-27.5 -15t-24.5 -14.5q-73 -39 -155 -39q-71 0 -148 29q-33 13 -44 40zM274.5 230.5q-2.5 -12.5 1.5 -15.5q34 -24 53 -18q36 13 77 29.5t89 36t76 30.5q21 8 43 8q12 0 24 -2q34 -7 53 -31q8 -10 24.5 -33t27 -35.5t31 -27t44.5 -21.5q0 8 0.5 27.5 t-0.5 33t-6 25.5q-20 46 -20 87q0 28 8 52q22 62 109 111q18 10 31 25.5t29.5 44t20.5 34.5q3 5 -2.5 15t-12.5 16q-7 5 -20 7t-18 -1q-19 -13 -50.5 -38.5t-45.5 -35.5q-36 -27 -71 -27q-42 0 -81 40q-108 110 -141 140q-7 6 -17 11.5t-17.5 9t-21 9t-19.5 7.5 q-4 2 -11.5 1.5t-9.5 -2.5q-23 -23 -19 -29q19 -28 58 -78.5t56 -74.5q33 -47 33 -85q0 -12 -4 -24q-16 -46 -95 -88q-17 -9 -56.5 -26.5t-59.5 -28.5q-36 -20 -82 -61q-6 -5 -8.5 -17.5zM822 143q0 -7 1 -10t12 -9q-3 3 -7 9.5t-6 9.5z" />
<glyph unicode="y" horiz-adv-x="1208" d="M103 -221v11q0 97 100 159q17 11 45.5 4t33.5 -25q17 -58 23 -115q8 -65 54 -104q15 -13 44.5 -13t39.5 15q49 71 59 103q11 36 29 113.5t31 116.5q15 48 19 80q1 6 1 13q0 26 -12 55q-14 37 -55 65q-17 12 -25 44q-26 94 -26 185q0 127 51 247q19 45 90 68q35 11 63 11 q30 0 53 -12q17 -9 31 -28t19 -38q5 -21 7.5 -44.5t5 -60.5t4.5 -56q13 17 32.5 43.5t33.5 44.5t28 32q11 11 25.5 21.5t35.5 23.5t34 22q9 -5 29.5 -15.5t35 -19t26.5 -17.5q39 -33 39 -72q0 -25 -16 -52q-80 -137 -243.5 -456t-264.5 -483q-59 -94 -120 -148 q-55 -48 -109 -48q-65 0 -128 71q-115 131 -123 259zM356 -435l13 -6l1 10zM589 403q2 -68 64 -95q47 -20 47 -70q0 -7 -1 -14q-2 -22 -5.5 -47t-8 -57.5t-7.5 -54.5q58 72 151.5 238.5t120.5 246.5q2 11 1.5 15t-3.5 16.5t-4 18.5q-55 -5 -88 -57q-54 -88 -85 -129 q-16 -21 -50.5 -16t-41.5 30q-15 50 -15 102v12q0 17 3.5 36.5t9.5 43t8 35.5q1 3 -3 7t-8 5q-28 8 -32 3q-4 -4 -15 -15.5t-16 -17.5t-11 -16t-7 -18q-5 -50 -5 -123q0 -37 1 -79z" />
<glyph unicode="&#xfd;" horiz-adv-x="1208" d="M103 -221v11q0 97 100 159q17 11 45.5 4t33.5 -25q17 -58 23 -115q8 -65 54 -104q15 -13 44.5 -13t39.5 15q49 71 59 103q11 36 29 113.5t31 116.5q15 48 19 80q1 6 1 13q0 26 -12 55q-14 37 -55 65q-17 12 -25 44q-26 94 -26 185q0 127 51 247q19 45 90 68q35 11 63 11 q30 0 53 -12q17 -9 31 -28t19 -38q5 -21 7.5 -44.5t5 -60.5t4.5 -56q13 17 32.5 43.5t33.5 44.5t28 32q11 11 25.5 21.5t35.5 23.5t34 22q9 -5 29.5 -15.5t35 -19t26.5 -17.5q39 -33 39 -72q0 -25 -16 -52q-80 -137 -243.5 -456t-264.5 -483q-59 -94 -120 -148 q-55 -48 -109 -48q-65 0 -128 71q-115 131 -123 259zM356 -435l13 -6l1 10zM589 403q2 -68 64 -95q47 -20 47 -70q0 -7 -1 -14q-2 -22 -5.5 -47t-8 -57.5t-7.5 -54.5q58 72 151.5 238.5t120.5 246.5q2 11 1.5 15t-3.5 16.5t-4 18.5q-55 -5 -88 -57q-54 -88 -85 -129 q-16 -21 -50.5 -16t-41.5 30q-15 50 -15 102v12q0 17 3.5 36.5t9.5 43t8 35.5q1 3 -3 7t-8 5q-28 8 -32 3q-4 -4 -15 -15.5t-16 -17.5t-11 -16t-7 -18q-5 -50 -5 -123q0 -37 1 -79z" />
<glyph unicode="z" horiz-adv-x="1210" d="M113 145q-11 24 -11 50q0 28 13 58q20 47 83 137q8 11 18.5 22.5t26 27l21.5 21.5q44 46 64 66q-2 6 -5 16.5t-5.5 17t-7.5 10.5q-38 31 -46 67q-3 14 -4 28q0 20 8 37q12 29 41 67q68 89 206 90q47 0 93.5 -4t98.5 -14.5t85 -18t96 -24t87 -22.5q40 -10 59 -39 q15 -23 15 -52q0 -8 -1 -15q-13 -113 -105 -171q-128 -82 -206 -132q11 -5 25 -11.5t21.5 -10t16.5 -6.5t17 -3h26q36 0 114 1q5 0 23.5 0.5t25 0.5t22 -1t23 -4t18 -8t17 -13.5t11.5 -19.5q10 -22 10 -43q0 -52 -60 -95q-181 -132 -365 -149q-57 -5 -127 -5q-93 0 -207 9 q-63 5 -151 52q-62 32 -84 83zM283 273q-15 -27 -15 -52q0 -28 19 -53q35 -48 115 -51q22 -1 48 -1q106 0 282 16q14 1 28.5 8.5t33 19.5t27.5 17q-1 6 -3.5 19t-4.5 20q-12 1 -81 5t-105 9q-75 10 -100 68q-8 18 -8 35q0 36 36 65q16 12 37 25t37 21.5t42 22.5l39 21 q6 3 36.5 19.5t40 22t33.5 21t35 27t25 29t22 36.5q-139 88 -277 101q-18 2 -34 2q-29 0 -51 -6q-34 -9 -48 -48q10 -5 29.5 -14t35 -17t26.5 -17q45 -35 45 -74q0 -44 -53 -75q-64 -37 -162 -85q-46 -23 -75 -56t-55 -81z" />
<glyph unicode="&#x2000;" horiz-adv-x="1003" />
<glyph unicode="&#x2001;" horiz-adv-x="2007" />
<glyph unicode="&#x2002;" horiz-adv-x="1003" />
<glyph unicode="&#x2003;" horiz-adv-x="2007" />
<glyph unicode="&#x2004;" horiz-adv-x="669" />
<glyph unicode="&#x2005;" horiz-adv-x="501" />
<glyph unicode="&#x2006;" horiz-adv-x="334" />
<glyph unicode="&#x2007;" horiz-adv-x="334" />
<glyph unicode="&#x2008;" horiz-adv-x="250" />
<glyph unicode="&#x2009;" horiz-adv-x="401" />
<glyph unicode="&#x200a;" horiz-adv-x="111" />
<glyph unicode="&#x202f;" horiz-adv-x="401" />
<glyph unicode="&#x205f;" horiz-adv-x="501" />
<glyph unicode="&#x25fc;" horiz-adv-x="860" d="M0 0v860h860v-860h-860z" />
</font>
</defs>
</svg>
